<svg width="322" height="144" viewBox="0 0 322 144" fill="none" xmlns="http://www.w3.org/2000/svg">
<path d="M11.4083 26.096C10.7684 26.096 10.1563 26 9.57235 25.808C8.98835 25.608 8.52835 25.352 8.19235 25.04L8.63635 24.104C8.95635 24.384 9.36435 24.616 9.86035 24.8C10.3563 24.984 10.8723 25.076 11.4083 25.076C11.8963 25.076 12.2923 25.02 12.5964 24.908C12.9003 24.796 13.1243 24.644 13.2684 24.452C13.4124 24.252 13.4844 24.028 13.4844 23.78C13.4844 23.492 13.3884 23.26 13.1964 23.084C13.0124 22.908 12.7684 22.768 12.4643 22.664C12.1683 22.552 11.8404 22.456 11.4804 22.376C11.1204 22.296 10.7563 22.204 10.3883 22.1C10.0283 21.988 9.69635 21.848 9.39235 21.68C9.09635 21.512 8.85635 21.288 8.67235 21.008C8.48835 20.72 8.39635 20.352 8.39635 19.904C8.39635 19.472 8.50835 19.076 8.73235 18.716C8.96435 18.348 9.31635 18.056 9.78835 17.84C10.2683 17.616 10.8763 17.504 11.6123 17.504C12.1004 17.504 12.5844 17.568 13.0644 17.696C13.5444 17.824 13.9604 18.008 14.3123 18.248L13.9163 19.208C13.5563 18.968 13.1763 18.796 12.7763 18.692C12.3764 18.58 11.9884 18.524 11.6123 18.524C11.1403 18.524 10.7524 18.584 10.4484 18.704C10.1443 18.824 9.92035 18.984 9.77635 19.184C9.64035 19.384 9.57235 19.608 9.57235 19.856C9.57235 20.152 9.66435 20.388 9.84835 20.564C10.0403 20.74 10.2843 20.88 10.5803 20.984C10.8844 21.088 11.2164 21.184 11.5763 21.272C11.9364 21.352 12.2964 21.444 12.6564 21.548C13.0244 21.652 13.3564 21.788 13.6524 21.956C13.9564 22.124 14.2004 22.348 14.3844 22.628C14.5684 22.908 14.6604 23.268 14.6604 23.708C14.6604 24.132 14.5444 24.528 14.3123 24.896C14.0803 25.256 13.7204 25.548 13.2324 25.772C12.7524 25.988 12.1444 26.096 11.4083 26.096ZM18.9215 26.072C18.3775 26.072 17.8975 25.972 17.4815 25.772C17.0735 25.572 16.7535 25.268 16.5215 24.86C16.2975 24.444 16.1855 23.924 16.1855 23.3V19.64H17.3375V23.168C17.3375 23.792 17.4855 24.26 17.7815 24.572C18.0855 24.884 18.5095 25.04 19.0535 25.04C19.4535 25.04 19.8015 24.96 20.0975 24.8C20.3935 24.632 20.6215 24.392 20.7815 24.08C20.9415 23.76 21.0215 23.376 21.0215 22.928V19.64H22.1735V26H21.0815V24.284L21.2615 24.74C21.0535 25.164 20.7415 25.492 20.3255 25.724C19.9095 25.956 19.4415 26.072 18.9215 26.072ZM27.7626 19.58C28.2826 19.58 28.7386 19.68 29.1306 19.88C29.5306 20.08 29.8426 20.384 30.0666 20.792C30.2906 21.2 30.4026 21.716 30.4026 22.34V26H29.2506V22.472C29.2506 21.856 29.0986 21.392 28.7946 21.08C28.4986 20.768 28.0786 20.612 27.5346 20.612C27.1266 20.612 26.7706 20.692 26.4666 20.852C26.1626 21.012 25.9266 21.248 25.7586 21.56C25.5986 21.872 25.5186 22.26 25.5186 22.724V26H24.3666V19.64H25.4706V21.356L25.2906 20.9C25.4986 20.484 25.8186 20.16 26.2506 19.928C26.6826 19.696 27.1866 19.58 27.7626 19.58Z" fill="#145DB8"/>
<path d="M54.3512 26V17.6H55.3352L59.1032 23.948H58.5752L62.2952 17.6H63.2792L63.2912 26H62.1392L62.1272 19.412H62.4032L59.0912 24.98H58.5392L55.2032 19.412H55.5032V26H54.3512ZM68.3682 26.072C67.7282 26.072 67.1602 25.932 66.6642 25.652C66.1682 25.372 65.7762 24.988 65.4882 24.5C65.2002 24.004 65.0562 23.444 65.0562 22.82C65.0562 22.188 65.2002 21.628 65.4882 21.14C65.7762 20.652 66.1682 20.272 66.6642 20C67.1602 19.72 67.7282 19.58 68.3682 19.58C69.0002 19.58 69.5642 19.72 70.0602 20C70.5642 20.272 70.9562 20.652 71.2362 21.14C71.5242 21.62 71.6682 22.18 71.6682 22.82C71.6682 23.452 71.5242 24.012 71.2362 24.5C70.9562 24.988 70.5642 25.372 70.0602 25.652C69.5642 25.932 69.0002 26.072 68.3682 26.072ZM68.3682 25.064C68.7762 25.064 69.1402 24.972 69.4602 24.788C69.7882 24.604 70.0442 24.344 70.2282 24.008C70.4122 23.664 70.5042 23.268 70.5042 22.82C70.5042 22.364 70.4122 21.972 70.2282 21.644C70.0442 21.308 69.7882 21.048 69.4602 20.864C69.1402 20.68 68.7762 20.588 68.3682 20.588C67.9602 20.588 67.5962 20.68 67.2762 20.864C66.9562 21.048 66.7002 21.308 66.5082 21.644C66.3162 21.972 66.2202 22.364 66.2202 22.82C66.2202 23.268 66.3162 23.664 66.5082 24.008C66.7002 24.344 66.9562 24.604 67.2762 24.788C67.5962 24.972 67.9602 25.064 68.3682 25.064ZM76.6574 19.58C77.1774 19.58 77.6334 19.68 78.0254 19.88C78.4254 20.08 78.7374 20.384 78.9614 20.792C79.1854 21.2 79.2974 21.716 79.2974 22.34V26H78.1454V22.472C78.1454 21.856 77.9934 21.392 77.6894 21.08C77.3934 20.768 76.9734 20.612 76.4294 20.612C76.0214 20.612 75.6654 20.692 75.3614 20.852C75.0574 21.012 74.8214 21.248 74.6534 21.56C74.4934 21.872 74.4134 22.26 74.4134 22.724V26H73.2614V19.64H74.3654V21.356L74.1854 20.9C74.3934 20.484 74.7134 20.16 75.1454 19.928C75.5774 19.696 76.0814 19.58 76.6574 19.58Z" fill="#145DB8"/>
<path d="M105.605 26V18.644H102.725V17.6H109.673V18.644H106.793V26H105.605ZM113.336 26.072C112.792 26.072 112.312 25.972 111.896 25.772C111.488 25.572 111.168 25.268 110.936 24.86C110.712 24.444 110.6 23.924 110.6 23.3V19.64H111.752V23.168C111.752 23.792 111.9 24.26 112.196 24.572C112.5 24.884 112.924 25.04 113.468 25.04C113.868 25.04 114.216 24.96 114.512 24.8C114.808 24.632 115.036 24.392 115.196 24.08C115.356 23.76 115.436 23.376 115.436 22.928V19.64H116.588V26H115.496V24.284L115.676 24.74C115.468 25.164 115.156 25.492 114.74 25.724C114.324 25.956 113.856 26.072 113.336 26.072ZM121.613 26.072C120.933 26.072 120.333 25.932 119.813 25.652C119.301 25.372 118.901 24.988 118.613 24.5C118.333 24.012 118.193 23.452 118.193 22.82C118.193 22.188 118.329 21.628 118.601 21.14C118.881 20.652 119.261 20.272 119.741 20C120.229 19.72 120.777 19.58 121.385 19.58C122.001 19.58 122.545 19.716 123.017 19.988C123.489 20.26 123.857 20.644 124.121 21.14C124.393 21.628 124.529 22.2 124.529 22.856C124.529 22.904 124.525 22.96 124.517 23.024C124.517 23.088 124.513 23.148 124.505 23.204H119.093V22.376H123.905L123.437 22.664C123.445 22.256 123.361 21.892 123.185 21.572C123.009 21.252 122.765 21.004 122.453 20.828C122.149 20.644 121.793 20.552 121.385 20.552C120.985 20.552 120.629 20.644 120.317 20.828C120.005 21.004 119.761 21.256 119.585 21.584C119.409 21.904 119.321 22.272 119.321 22.688V22.88C119.321 23.304 119.417 23.684 119.609 24.02C119.809 24.348 120.085 24.604 120.437 24.788C120.789 24.972 121.193 25.064 121.649 25.064C122.025 25.064 122.365 25 122.669 24.872C122.981 24.744 123.253 24.552 123.485 24.296L124.121 25.04C123.833 25.376 123.473 25.632 123.041 25.808C122.617 25.984 122.141 26.072 121.613 26.072Z" fill="#145DB8"/>
<path d="M150.001 26L147.193 17.6H148.429L151.009 25.352H150.385L153.061 17.6H154.165L156.781 25.352H156.181L158.797 17.6H159.937L157.129 26H155.869L153.421 18.812H153.745L151.285 26H150.001ZM163.588 26.072C162.908 26.072 162.308 25.932 161.788 25.652C161.276 25.372 160.876 24.988 160.588 24.5C160.308 24.012 160.168 23.452 160.168 22.82C160.168 22.188 160.304 21.628 160.576 21.14C160.856 20.652 161.236 20.272 161.716 20C162.204 19.72 162.752 19.58 163.36 19.58C163.976 19.58 164.52 19.716 164.992 19.988C165.464 20.26 165.832 20.644 166.096 21.14C166.368 21.628 166.504 22.2 166.504 22.856C166.504 22.904 166.5 22.96 166.492 23.024C166.492 23.088 166.488 23.148 166.48 23.204H161.068V22.376H165.88L165.412 22.664C165.42 22.256 165.336 21.892 165.16 21.572C164.984 21.252 164.74 21.004 164.428 20.828C164.124 20.644 163.768 20.552 163.36 20.552C162.96 20.552 162.604 20.644 162.292 20.828C161.98 21.004 161.736 21.256 161.56 21.584C161.384 21.904 161.296 22.272 161.296 22.688V22.88C161.296 23.304 161.392 23.684 161.584 24.02C161.784 24.348 162.06 24.604 162.412 24.788C162.764 24.972 163.168 25.064 163.624 25.064C164 25.064 164.34 25 164.644 24.872C164.956 24.744 165.228 24.552 165.46 24.296L166.096 25.04C165.808 25.376 165.448 25.632 165.016 25.808C164.592 25.984 164.116 26.072 163.588 26.072ZM170.732 26.072C170.116 26.072 169.564 25.936 169.076 25.664C168.596 25.392 168.216 25.012 167.936 24.524C167.656 24.036 167.516 23.468 167.516 22.82C167.516 22.172 167.656 21.608 167.936 21.128C168.216 20.64 168.596 20.26 169.076 19.988C169.564 19.716 170.116 19.58 170.732 19.58C171.268 19.58 171.752 19.7 172.184 19.94C172.616 20.18 172.96 20.54 173.216 21.02C173.48 21.5 173.612 22.1 173.612 22.82C173.612 23.54 173.484 24.14 173.228 24.62C172.98 25.1 172.64 25.464 172.208 25.712C171.776 25.952 171.284 26.072 170.732 26.072ZM170.828 25.064C171.228 25.064 171.588 24.972 171.908 24.788C172.236 24.604 172.492 24.344 172.676 24.008C172.868 23.664 172.964 23.268 172.964 22.82C172.964 22.364 172.868 21.972 172.676 21.644C172.492 21.308 172.236 21.048 171.908 20.864C171.588 20.68 171.228 20.588 170.828 20.588C170.42 20.588 170.056 20.68 169.736 20.864C169.416 21.048 169.16 21.308 168.968 21.644C168.776 21.972 168.68 22.364 168.68 22.82C168.68 23.268 168.776 23.664 168.968 24.008C169.16 24.344 169.416 24.604 169.736 24.788C170.056 24.972 170.42 25.064 170.828 25.064ZM173 26V24.284L173.072 22.808L172.952 21.332V17.096H174.104V26H173Z" fill="#145DB8"/>
<path d="M199.405 26V18.644H196.525V17.6H203.473V18.644H200.593V26H199.405ZM208.008 19.58C208.528 19.58 208.984 19.68 209.376 19.88C209.776 20.08 210.088 20.384 210.312 20.792C210.536 21.2 210.648 21.716 210.648 22.34V26H209.496V22.472C209.496 21.856 209.344 21.392 209.04 21.08C208.744 20.768 208.324 20.612 207.78 20.612C207.372 20.612 207.016 20.692 206.712 20.852C206.408 21.012 206.172 21.248 206.004 21.56C205.844 21.872 205.764 22.26 205.764 22.724V26H204.612V17.096H205.764V21.356L205.536 20.9C205.744 20.484 206.064 20.16 206.496 19.928C206.928 19.696 207.432 19.58 208.008 19.58ZM215.456 26.072C214.912 26.072 214.432 25.972 214.016 25.772C213.608 25.572 213.288 25.268 213.056 24.86C212.832 24.444 212.72 23.924 212.72 23.3V19.64H213.872V23.168C213.872 23.792 214.02 24.26 214.316 24.572C214.62 24.884 215.044 25.04 215.588 25.04C215.988 25.04 216.336 24.96 216.632 24.8C216.928 24.632 217.156 24.392 217.316 24.08C217.476 23.76 217.556 23.376 217.556 22.928V19.64H218.708V26H217.616V24.284L217.796 24.74C217.588 25.164 217.276 25.492 216.86 25.724C216.444 25.956 215.976 26.072 215.456 26.072Z" fill="#145DB8"/>
<path d="M249.78 21.572H254.112V22.604H249.78V21.572ZM249.9 26H248.7V17.6H254.628V18.644H249.9V26ZM256.032 26V19.64H257.136V21.368L257.028 20.936C257.204 20.496 257.5 20.16 257.916 19.928C258.332 19.696 258.844 19.58 259.452 19.58V20.696C259.404 20.688 259.356 20.684 259.308 20.684C259.268 20.684 259.228 20.684 259.188 20.684C258.572 20.684 258.084 20.868 257.724 21.236C257.364 21.604 257.184 22.136 257.184 22.832V26H256.032ZM260.872 26V19.64H262.024V26H260.872ZM261.448 18.416C261.224 18.416 261.036 18.344 260.884 18.2C260.74 18.056 260.668 17.88 260.668 17.672C260.668 17.456 260.74 17.276 260.884 17.132C261.036 16.988 261.224 16.916 261.448 16.916C261.672 16.916 261.856 16.988 262 17.132C262.152 17.268 262.228 17.44 262.228 17.648C262.228 17.864 262.156 18.048 262.012 18.2C261.868 18.344 261.68 18.416 261.448 18.416Z" fill="#145DB8"/>
<path d="M296.34 26.096C295.7 26.096 295.088 26 294.504 25.808C293.92 25.608 293.46 25.352 293.124 25.04L293.568 24.104C293.888 24.384 294.296 24.616 294.792 24.8C295.288 24.984 295.804 25.076 296.34 25.076C296.828 25.076 297.224 25.02 297.528 24.908C297.832 24.796 298.056 24.644 298.2 24.452C298.344 24.252 298.416 24.028 298.416 23.78C298.416 23.492 298.32 23.26 298.128 23.084C297.944 22.908 297.7 22.768 297.396 22.664C297.1 22.552 296.772 22.456 296.412 22.376C296.052 22.296 295.688 22.204 295.32 22.1C294.96 21.988 294.628 21.848 294.324 21.68C294.028 21.512 293.788 21.288 293.604 21.008C293.42 20.72 293.328 20.352 293.328 19.904C293.328 19.472 293.44 19.076 293.664 18.716C293.896 18.348 294.248 18.056 294.72 17.84C295.2 17.616 295.808 17.504 296.544 17.504C297.032 17.504 297.516 17.568 297.996 17.696C298.476 17.824 298.892 18.008 299.244 18.248L298.848 19.208C298.488 18.968 298.108 18.796 297.708 18.692C297.308 18.58 296.92 18.524 296.544 18.524C296.072 18.524 295.684 18.584 295.38 18.704C295.076 18.824 294.852 18.984 294.708 19.184C294.572 19.384 294.504 19.608 294.504 19.856C294.504 20.152 294.596 20.388 294.78 20.564C294.972 20.74 295.216 20.88 295.512 20.984C295.816 21.088 296.148 21.184 296.508 21.272C296.868 21.352 297.228 21.444 297.588 21.548C297.956 21.652 298.288 21.788 298.584 21.956C298.888 22.124 299.132 22.348 299.316 22.628C299.5 22.908 299.592 23.268 299.592 23.708C299.592 24.132 299.476 24.528 299.244 24.896C299.012 25.256 298.652 25.548 298.164 25.772C297.684 25.988 297.076 26.096 296.34 26.096ZM305.125 26V24.656L305.065 24.404V22.112C305.065 21.624 304.921 21.248 304.633 20.984C304.353 20.712 303.929 20.576 303.361 20.576C302.985 20.576 302.617 20.64 302.257 20.768C301.897 20.888 301.593 21.052 301.345 21.26L300.865 20.396C301.193 20.132 301.585 19.932 302.041 19.796C302.505 19.652 302.989 19.58 303.493 19.58C304.365 19.58 305.037 19.792 305.509 20.216C305.981 20.64 306.217 21.288 306.217 22.16V26H305.125ZM303.037 26.072C302.565 26.072 302.149 25.992 301.789 25.832C301.437 25.672 301.165 25.452 300.973 25.172C300.781 24.884 300.685 24.56 300.685 24.2C300.685 23.856 300.765 23.544 300.925 23.264C301.093 22.984 301.361 22.76 301.729 22.592C302.105 22.424 302.609 22.34 303.241 22.34H305.257V23.168H303.289C302.713 23.168 302.325 23.264 302.125 23.456C301.925 23.648 301.825 23.88 301.825 24.152C301.825 24.464 301.949 24.716 302.197 24.908C302.445 25.092 302.789 25.184 303.229 25.184C303.661 25.184 304.037 25.088 304.357 24.896C304.685 24.704 304.921 24.424 305.065 24.056L305.293 24.848C305.141 25.224 304.873 25.524 304.489 25.748C304.105 25.964 303.621 26.072 303.037 26.072ZM310.533 26.072C309.893 26.072 309.397 25.9 309.045 25.556C308.693 25.212 308.517 24.72 308.517 24.08V18.248H309.669V24.032C309.669 24.376 309.753 24.64 309.921 24.824C310.097 25.008 310.345 25.1 310.665 25.1C311.025 25.1 311.325 25 311.565 24.8L311.925 25.628C311.749 25.78 311.537 25.892 311.289 25.964C311.049 26.036 310.797 26.072 310.533 26.072ZM307.437 20.588V19.64H311.493V20.588H307.437Z" fill="#145DB8"/>
<rect y="50.43" width="42.4286" height="42.43" rx="12" fill="#F5F6F7"/>
<path d="M20.8112 67.934C21.5712 67.934 22.2112 68.098 22.7312 68.426C23.2592 68.754 23.6592 69.23 23.9312 69.854C24.2032 70.47 24.3392 71.226 24.3392 72.122C24.3392 73.074 24.1712 73.878 23.8352 74.534C23.4992 75.19 23.0352 75.686 22.4432 76.022C21.8512 76.358 21.1592 76.526 20.3672 76.526C19.9752 76.526 19.5952 76.486 19.2272 76.406C18.8672 76.326 18.5512 76.202 18.2792 76.034L18.7352 75.098C18.9592 75.242 19.2072 75.346 19.4792 75.41C19.7592 75.466 20.0512 75.494 20.3552 75.494C21.2032 75.494 21.8792 75.23 22.3832 74.702C22.8872 74.166 23.1392 73.374 23.1392 72.326C23.1392 72.158 23.1312 71.958 23.1152 71.726C23.0992 71.494 23.0632 71.266 23.0072 71.042L23.4032 71.45C23.2912 71.818 23.1032 72.13 22.8392 72.386C22.5832 72.634 22.2712 72.822 21.9032 72.95C21.5432 73.07 21.1472 73.13 20.7152 73.13C20.1632 73.13 19.6712 73.026 19.2392 72.818C18.8072 72.61 18.4672 72.318 18.2192 71.942C17.9712 71.558 17.8472 71.106 17.8472 70.586C17.8472 70.042 17.9752 69.574 18.2312 69.182C18.4952 68.782 18.8512 68.474 19.2992 68.258C19.7552 68.042 20.2592 67.934 20.8112 67.934ZM20.8592 68.906C20.4992 68.906 20.1792 68.974 19.8992 69.11C19.6192 69.246 19.3992 69.434 19.2392 69.674C19.0872 69.914 19.0112 70.202 19.0112 70.538C19.0112 71.034 19.1832 71.43 19.5272 71.726C19.8712 72.014 20.3352 72.158 20.9192 72.158C21.3032 72.158 21.6392 72.086 21.9272 71.942C22.2232 71.798 22.4512 71.602 22.6112 71.354C22.7792 71.106 22.8632 70.83 22.8632 70.526C22.8632 70.23 22.7872 69.962 22.6352 69.722C22.4832 69.482 22.2592 69.286 21.9632 69.134C21.6672 68.982 21.2992 68.906 20.8592 68.906Z" fill="#99A2AB"/>
<rect x="55.4286" y="50.43" width="42.4286" height="42.43" rx="12" fill="#F5F6F7"/>
<path d="M74.1935 76.43V68.51L74.7095 69.074H72.2975V68.03H75.3815V76.43H74.1935ZM78.6349 76.43V68.51L79.1509 69.074H76.7389V68.03H79.8229V76.43H78.6349Z" fill="#99A2AB"/>
<rect x="110.857" y="50.43" width="42.4286" height="42.43" rx="12" fill="#F5F6F7"/>
<path d="M128.397 76.43V68.51L128.913 69.074H126.501V68.03H129.585V76.43H128.397ZM131.291 76.43V75.614L134.711 72.314C135.015 72.026 135.239 71.774 135.383 71.558C135.535 71.334 135.635 71.13 135.683 70.946C135.739 70.754 135.767 70.57 135.767 70.394C135.767 69.962 135.615 69.622 135.311 69.374C135.007 69.126 134.563 69.002 133.979 69.002C133.531 69.002 133.127 69.078 132.767 69.23C132.407 69.374 132.095 69.602 131.831 69.914L131.015 69.206C131.335 68.798 131.763 68.486 132.299 68.27C132.843 68.046 133.439 67.934 134.087 67.934C134.671 67.934 135.179 68.03 135.611 68.222C136.043 68.406 136.375 68.674 136.607 69.026C136.847 69.378 136.967 69.794 136.967 70.274C136.967 70.546 136.931 70.814 136.859 71.078C136.787 71.342 136.651 71.622 136.451 71.918C136.251 72.214 135.963 72.546 135.587 72.914L132.539 75.854L132.251 75.386H137.327V76.43H131.291Z" fill="#99A2AB"/>
<rect x="166.286" y="50.43" width="42.4286" height="42.43" rx="12" fill="#F5F6F7"/>
<path d="M183.838 76.43V68.51L184.354 69.074H181.942V68.03H185.026V76.43H183.838ZM189.431 76.526C188.839 76.526 188.263 76.434 187.703 76.25C187.151 76.066 186.699 75.818 186.347 75.506L186.899 74.558C187.179 74.822 187.543 75.038 187.991 75.206C188.439 75.374 188.919 75.458 189.431 75.458C190.055 75.458 190.539 75.326 190.883 75.062C191.235 74.79 191.411 74.426 191.411 73.97C191.411 73.53 191.243 73.178 190.907 72.914C190.579 72.642 190.055 72.506 189.335 72.506H188.663V71.666L191.159 68.594L191.327 69.074H186.731V68.03H192.275V68.846L189.791 71.906L189.167 71.534H189.563C190.579 71.534 191.339 71.762 191.843 72.218C192.355 72.674 192.611 73.254 192.611 73.958C192.611 74.43 192.495 74.862 192.263 75.254C192.031 75.646 191.679 75.958 191.207 76.19C190.743 76.414 190.151 76.526 189.431 76.526Z" fill="#99A2AB"/>
<rect x="221.714" y="50.43" width="42.4286" height="42.43" rx="12" fill="#F5F6F7"/>
<path d="M238.686 76.43V68.51L239.202 69.074H236.79V68.03H239.874V76.43H238.686ZM241.592 74.366V73.526L245.888 68.03H247.184L242.924 73.526L242.312 73.334H249.02V74.366H241.592ZM246.26 76.43V74.366L246.296 73.334V71.51H247.424V76.43H246.26Z" fill="#99A2AB"/>
<rect x="277.143" y="50.43" width="42.4286" height="42.43" rx="12" fill="#E8EFF8"/>
<path d="M294.683 76.43V68.51L295.199 69.074H292.787V68.03H295.871V76.43H294.683ZM300.421 76.526C299.829 76.526 299.253 76.434 298.693 76.25C298.141 76.066 297.689 75.818 297.337 75.506L297.889 74.558C298.169 74.822 298.533 75.038 298.981 75.206C299.429 75.374 299.905 75.458 300.409 75.458C301.049 75.458 301.541 75.322 301.885 75.05C302.229 74.778 302.401 74.414 302.401 73.958C302.401 73.646 302.325 73.374 302.173 73.142C302.021 72.91 301.757 72.734 301.381 72.614C301.013 72.486 300.505 72.422 299.857 72.422H297.949L298.393 68.03H303.133V69.074H298.837L299.461 68.486L299.113 71.954L298.489 71.378H300.109C300.949 71.378 301.625 71.486 302.137 71.702C302.649 71.918 303.021 72.218 303.253 72.602C303.485 72.978 303.601 73.414 303.601 73.91C303.601 74.39 303.485 74.83 303.253 75.23C303.021 75.622 302.669 75.938 302.197 76.178C301.733 76.41 301.141 76.526 300.421 76.526Z" fill="#404448"/>
<rect y="100.86" width="42.4286" height="42.43" rx="12" fill="#E8EFF8"/>
<path d="M17.2825 126.86V118.94L17.7985 119.504H15.3865V118.46H18.4705V126.86H17.2825ZM23.8359 126.956C23.0919 126.956 22.4559 126.792 21.9279 126.464C21.3999 126.136 20.9959 125.664 20.7159 125.048C20.4439 124.424 20.3079 123.664 20.3079 122.768C20.3079 121.816 20.4759 121.012 20.8119 120.356C21.1479 119.7 21.6159 119.204 22.2159 118.868C22.8159 118.532 23.5039 118.364 24.2799 118.364C24.6799 118.364 25.0599 118.404 25.4199 118.484C25.7879 118.564 26.1039 118.688 26.3679 118.856L25.9119 119.792C25.6959 119.64 25.4479 119.536 25.1679 119.48C24.8959 119.424 24.6079 119.396 24.3039 119.396C23.4479 119.396 22.7679 119.664 22.2639 120.2C21.7599 120.728 21.5079 121.516 21.5079 122.564C21.5079 122.732 21.5159 122.932 21.5319 123.164C21.5479 123.396 21.5879 123.624 21.6519 123.848L21.2439 123.44C21.3639 123.072 21.5519 122.764 21.8079 122.516C22.0719 122.26 22.3839 122.072 22.7439 121.952C23.1119 121.824 23.5079 121.76 23.9319 121.76C24.4919 121.76 24.9879 121.864 25.4199 122.072C25.8519 122.28 26.1919 122.576 26.4399 122.96C26.6879 123.336 26.8119 123.784 26.8119 124.304C26.8119 124.84 26.6799 125.308 26.4159 125.708C26.1519 126.108 25.7959 126.416 25.3479 126.632C24.8999 126.848 24.3959 126.956 23.8359 126.956ZM23.7879 125.984C24.1559 125.984 24.4759 125.916 24.7479 125.78C25.0279 125.644 25.2479 125.456 25.4079 125.216C25.5679 124.968 25.6479 124.68 25.6479 124.352C25.6479 123.856 25.4759 123.464 25.1319 123.176C24.7879 122.88 24.3199 122.732 23.7279 122.732C23.3439 122.732 23.0079 122.804 22.7199 122.948C22.4319 123.092 22.2039 123.288 22.0359 123.536C21.8759 123.776 21.7959 124.052 21.7959 124.364C21.7959 124.652 21.8719 124.92 22.0239 125.168C22.1759 125.408 22.3999 125.604 22.6959 125.756C22.9919 125.908 23.3559 125.984 23.7879 125.984Z" fill="#404448"/>
<rect x="55.4286" y="100.86" width="42.4286" height="42.43" rx="12" fill="#E8EFF8"/>
<path d="M72.8282 126.86V118.94L73.3442 119.504H70.9322V118.46H74.0162V126.86H72.8282ZM77.3056 126.86L80.8696 118.964L81.1816 119.504H76.1896L76.7896 118.916V121.004H75.6376V118.46H81.9736V119.276L78.5776 126.86H77.3056Z" fill="#404448"/>
<rect x="110.857" y="100.86" width="42.4286" height="42.43" rx="12" fill="#E8EFF8"/>
<path d="M127.981 126.86V118.94L128.497 119.504H126.085V118.46H129.169V126.86H127.981ZM134.283 126.956C133.603 126.956 133.015 126.856 132.519 126.656C132.023 126.456 131.639 126.172 131.367 125.804C131.095 125.428 130.959 124.988 130.959 124.484C130.959 123.988 131.087 123.568 131.343 123.224C131.607 122.872 131.987 122.608 132.483 122.432C132.979 122.248 133.579 122.156 134.283 122.156C134.987 122.156 135.587 122.248 136.083 122.432C136.587 122.608 136.971 122.872 137.235 123.224C137.499 123.576 137.631 123.996 137.631 124.484C137.631 124.988 137.495 125.428 137.223 125.804C136.951 126.172 136.563 126.456 136.059 126.656C135.555 126.856 134.963 126.956 134.283 126.956ZM134.283 125.984C134.955 125.984 135.479 125.848 135.855 125.576C136.239 125.296 136.431 124.92 136.431 124.448C136.431 123.984 136.239 123.62 135.855 123.356C135.479 123.084 134.955 122.948 134.283 122.948C133.619 122.948 133.099 123.084 132.723 123.356C132.347 123.62 132.159 123.984 132.159 124.448C132.159 124.92 132.347 125.296 132.723 125.576C133.099 125.848 133.619 125.984 134.283 125.984ZM134.283 122.804C133.643 122.804 133.099 122.72 132.651 122.552C132.203 122.376 131.859 122.128 131.619 121.808C131.379 121.48 131.259 121.092 131.259 120.644C131.259 120.172 131.383 119.768 131.631 119.432C131.887 119.088 132.243 118.824 132.699 118.64C133.155 118.456 133.683 118.364 134.283 118.364C134.891 118.364 135.423 118.456 135.879 118.64C136.335 118.824 136.691 119.088 136.947 119.432C137.203 119.768 137.331 120.172 137.331 120.644C137.331 121.092 137.211 121.48 136.971 121.808C136.731 122.128 136.383 122.376 135.927 122.552C135.471 122.72 134.923 122.804 134.283 122.804ZM134.283 122.036C134.867 122.036 135.323 121.916 135.651 121.676C135.987 121.436 136.155 121.108 136.155 120.692C136.155 120.268 135.983 119.936 135.639 119.696C135.295 119.456 134.843 119.336 134.283 119.336C133.723 119.336 133.275 119.456 132.939 119.696C132.611 119.936 132.447 120.268 132.447 120.692C132.447 121.108 132.607 121.436 132.927 121.676C133.255 121.916 133.707 122.036 134.283 122.036Z" fill="#404448"/>
<rect x="166.286" y="100.86" width="42.4286" height="42.43" rx="12" fill="#E8EFF8"/>
<path d="M183.568 126.86V118.94L184.084 119.504H181.672V118.46H184.756V126.86H183.568ZM189.318 118.364C190.078 118.364 190.718 118.528 191.238 118.856C191.766 119.184 192.166 119.66 192.438 120.284C192.71 120.9 192.846 121.656 192.846 122.552C192.846 123.504 192.678 124.308 192.342 124.964C192.006 125.62 191.542 126.116 190.95 126.452C190.358 126.788 189.666 126.956 188.874 126.956C188.482 126.956 188.102 126.916 187.734 126.836C187.374 126.756 187.058 126.632 186.786 126.464L187.242 125.528C187.466 125.672 187.714 125.776 187.986 125.84C188.266 125.896 188.558 125.924 188.862 125.924C189.71 125.924 190.386 125.66 190.89 125.132C191.394 124.596 191.646 123.804 191.646 122.756C191.646 122.588 191.638 122.388 191.622 122.156C191.606 121.924 191.57 121.696 191.514 121.472L191.91 121.88C191.798 122.248 191.61 122.56 191.346 122.816C191.09 123.064 190.778 123.252 190.41 123.38C190.05 123.5 189.654 123.56 189.222 123.56C188.67 123.56 188.178 123.456 187.746 123.248C187.314 123.04 186.974 122.748 186.726 122.372C186.478 121.988 186.354 121.536 186.354 121.016C186.354 120.472 186.482 120.004 186.738 119.612C187.002 119.212 187.358 118.904 187.806 118.688C188.262 118.472 188.766 118.364 189.318 118.364ZM189.366 119.336C189.006 119.336 188.686 119.404 188.406 119.54C188.126 119.676 187.906 119.864 187.746 120.104C187.594 120.344 187.518 120.632 187.518 120.968C187.518 121.464 187.69 121.86 188.034 122.156C188.378 122.444 188.842 122.588 189.426 122.588C189.81 122.588 190.146 122.516 190.434 122.372C190.73 122.228 190.958 122.032 191.118 121.784C191.286 121.536 191.37 121.26 191.37 120.956C191.37 120.66 191.294 120.392 191.142 120.152C190.99 119.912 190.766 119.716 190.47 119.564C190.174 119.412 189.806 119.336 189.366 119.336Z" fill="#404448"/>
<rect x="221.714" y="100.86" width="42.4286" height="42.43" rx="12" fill="#E8EFF8"/>
<path d="M235.931 126.86V126.044L239.351 122.744C239.655 122.456 239.879 122.204 240.023 121.988C240.175 121.764 240.275 121.56 240.323 121.376C240.379 121.184 240.407 121 240.407 120.824C240.407 120.392 240.255 120.052 239.951 119.804C239.647 119.556 239.203 119.432 238.619 119.432C238.171 119.432 237.767 119.508 237.407 119.66C237.047 119.804 236.735 120.032 236.471 120.344L235.655 119.636C235.975 119.228 236.403 118.916 236.939 118.7C237.483 118.476 238.079 118.364 238.727 118.364C239.311 118.364 239.819 118.46 240.251 118.652C240.683 118.836 241.015 119.104 241.247 119.456C241.487 119.808 241.607 120.224 241.607 120.704C241.607 120.976 241.571 121.244 241.499 121.508C241.427 121.772 241.291 122.052 241.091 122.348C240.891 122.644 240.603 122.976 240.227 123.344L237.179 126.284L236.891 125.816H241.967V126.86H235.931ZM246.374 126.956C245.718 126.956 245.13 126.788 244.61 126.452C244.098 126.116 243.69 125.628 243.386 124.988C243.09 124.348 242.942 123.572 242.942 122.66C242.942 121.748 243.09 120.972 243.386 120.332C243.69 119.692 244.098 119.204 244.61 118.868C245.13 118.532 245.718 118.364 246.374 118.364C247.022 118.364 247.606 118.532 248.126 118.868C248.646 119.204 249.054 119.692 249.35 120.332C249.646 120.972 249.794 121.748 249.794 122.66C249.794 123.572 249.646 124.348 249.35 124.988C249.054 125.628 248.646 126.116 248.126 126.452C247.606 126.788 247.022 126.956 246.374 126.956ZM246.374 125.888C246.814 125.888 247.198 125.768 247.526 125.528C247.862 125.288 248.122 124.928 248.306 124.448C248.498 123.968 248.594 123.372 248.594 122.66C248.594 121.948 248.498 121.352 248.306 120.872C248.122 120.392 247.862 120.032 247.526 119.792C247.198 119.552 246.814 119.432 246.374 119.432C245.934 119.432 245.546 119.552 245.21 119.792C244.874 120.032 244.61 120.392 244.418 120.872C244.234 121.352 244.142 121.948 244.142 122.66C244.142 123.372 244.234 123.968 244.418 124.448C244.61 124.928 244.874 125.288 245.21 125.528C245.546 125.768 245.934 125.888 246.374 125.888Z" fill="#404448"/>
<rect x="277.143" y="100.86" width="42.4286" height="42.43" rx="12" fill="#F5F6F7"/>
<path d="M293.135 126.86V126.044L296.555 122.744C296.859 122.456 297.083 122.204 297.227 121.988C297.379 121.764 297.479 121.56 297.527 121.376C297.583 121.184 297.611 121 297.611 120.824C297.611 120.392 297.459 120.052 297.155 119.804C296.851 119.556 296.407 119.432 295.823 119.432C295.375 119.432 294.971 119.508 294.611 119.66C294.251 119.804 293.939 120.032 293.675 120.344L292.859 119.636C293.179 119.228 293.607 118.916 294.143 118.7C294.687 118.476 295.283 118.364 295.931 118.364C296.515 118.364 297.023 118.46 297.455 118.652C297.887 118.836 298.219 119.104 298.451 119.456C298.691 119.808 298.811 120.224 298.811 120.704C298.811 120.976 298.775 121.244 298.703 121.508C298.631 121.772 298.495 122.052 298.295 122.348C298.095 122.644 297.807 122.976 297.431 123.344L294.383 126.284L294.095 125.816H299.171V126.86H293.135ZM301.574 126.86V118.94L302.09 119.504H299.678V118.46H302.762V126.86H301.574Z" fill="#99A2AB"/>
</svg>
