<svg width="322" height="48" viewBox="0 0 322 48" fill="none" xmlns="http://www.w3.org/2000/svg">
<rect x="0.5" y="0.5" width="47" height="47" rx="11.5" stroke="white"/>
<path d="M21.57 17.93L15.5 24L21.57 30.07" stroke="#05162C" stroke-width="1.5" stroke-miterlimit="10" stroke-linecap="round" stroke-linejoin="round"/>
<path d="M32.5 24H15.67" stroke="#05162C" stroke-width="1.5" stroke-miterlimit="10" stroke-linecap="round" stroke-linejoin="round"/>
<path d="M126.643 30.128C125.982 30.128 125.363 29.9893 124.787 29.712C124.211 29.4347 123.742 29.0347 123.379 28.512L124.307 27.424C124.617 27.8507 124.963 28.1813 125.347 28.416C125.742 28.64 126.174 28.752 126.643 28.752C127.923 28.752 128.563 27.9947 128.563 26.48V20.192H124.515V18.8H130.147V26.4C130.147 27.648 129.849 28.5813 129.251 29.2C128.665 29.8187 127.795 30.128 126.643 30.128ZM136.751 30.096C136.025 30.096 135.385 29.9627 134.831 29.696C134.287 29.4293 133.86 29.024 133.551 28.48C133.252 27.9253 133.103 27.232 133.103 26.4V21.52H134.639V26.224C134.639 27.056 134.836 27.68 135.231 28.096C135.636 28.512 136.201 28.72 136.927 28.72C137.46 28.72 137.924 28.6133 138.319 28.4C138.713 28.176 139.017 27.856 139.231 27.44C139.444 27.0133 139.551 26.5013 139.551 25.904V21.52H141.087V30H139.631V27.712L139.871 28.32C139.593 28.8853 139.177 29.3227 138.623 29.632C138.068 29.9413 137.444 30.096 136.751 30.096ZM144.011 30V18.128H145.547V30H144.011ZM148.847 33.2C148.442 33.2 148.047 33.1307 147.663 32.992C147.279 32.864 146.949 32.672 146.671 32.416L147.327 31.264C147.541 31.4667 147.775 31.6213 148.031 31.728C148.287 31.8347 148.559 31.888 148.847 31.888C149.221 31.888 149.53 31.792 149.775 31.6C150.021 31.408 150.25 31.0667 150.463 30.576L150.991 29.408L151.151 29.216L154.479 21.52H155.983L151.871 30.848C151.626 31.4453 151.349 31.9147 151.039 32.256C150.741 32.5973 150.41 32.8373 150.047 32.976C149.685 33.1253 149.285 33.2 148.847 33.2ZM150.863 30.272L146.991 21.52H148.591L151.887 29.072L150.863 30.272ZM160.85 30V28.912L165.41 24.512C165.815 24.128 166.114 23.792 166.306 23.504C166.508 23.2053 166.642 22.9333 166.706 22.688C166.78 22.432 166.818 22.1867 166.818 21.952C166.818 21.376 166.615 20.9227 166.21 20.592C165.804 20.2613 165.212 20.096 164.434 20.096C163.836 20.096 163.298 20.1973 162.818 20.4C162.338 20.592 161.922 20.896 161.57 21.312L160.482 20.368C160.908 19.824 161.479 19.408 162.194 19.12C162.919 18.8213 163.714 18.672 164.578 18.672C165.356 18.672 166.034 18.8 166.61 19.056C167.186 19.3013 167.628 19.6587 167.938 20.128C168.258 20.5973 168.418 21.152 168.418 21.792C168.418 22.1547 168.37 22.512 168.274 22.864C168.178 23.216 167.996 23.5893 167.73 23.984C167.463 24.3787 167.079 24.8213 166.578 25.312L162.514 29.232L162.13 28.608H168.898V30H160.85ZM174.774 30.128C173.899 30.128 173.115 29.904 172.422 29.456C171.739 29.008 171.195 28.3573 170.79 27.504C170.395 26.6507 170.198 25.616 170.198 24.4C170.198 23.184 170.395 22.1493 170.79 21.296C171.195 20.4427 171.739 19.792 172.422 19.344C173.115 18.896 173.899 18.672 174.774 18.672C175.638 18.672 176.416 18.896 177.11 19.344C177.803 19.792 178.347 20.4427 178.742 21.296C179.136 22.1493 179.334 23.184 179.334 24.4C179.334 25.616 179.136 26.6507 178.742 27.504C178.347 28.3573 177.803 29.008 177.11 29.456C176.416 29.904 175.638 30.128 174.774 30.128ZM174.774 28.704C175.36 28.704 175.872 28.544 176.31 28.224C176.758 27.904 177.104 27.424 177.35 26.784C177.606 26.144 177.734 25.3493 177.734 24.4C177.734 23.4507 177.606 22.656 177.35 22.016C177.104 21.376 176.758 20.896 176.31 20.576C175.872 20.256 175.36 20.096 174.774 20.096C174.187 20.096 173.67 20.256 173.222 20.576C172.774 20.896 172.422 21.376 172.166 22.016C171.92 22.656 171.798 23.4507 171.798 24.4C171.798 25.3493 171.92 26.144 172.166 26.784C172.422 27.424 172.774 27.904 173.222 28.224C173.67 28.544 174.187 28.704 174.774 28.704ZM180.694 30V28.912L185.254 24.512C185.659 24.128 185.958 23.792 186.15 23.504C186.352 23.2053 186.486 22.9333 186.55 22.688C186.624 22.432 186.662 22.1867 186.662 21.952C186.662 21.376 186.459 20.9227 186.054 20.592C185.648 20.2613 185.056 20.096 184.278 20.096C183.68 20.096 183.142 20.1973 182.662 20.4C182.182 20.592 181.766 20.896 181.414 21.312L180.326 20.368C180.752 19.824 181.323 19.408 182.038 19.12C182.763 18.8213 183.558 18.672 184.422 18.672C185.2 18.672 185.878 18.8 186.454 19.056C187.03 19.3013 187.472 19.6587 187.782 20.128C188.102 20.5973 188.262 21.152 188.262 21.792C188.262 22.1547 188.214 22.512 188.118 22.864C188.022 23.216 187.84 23.5893 187.574 23.984C187.307 24.3787 186.923 24.8213 186.422 25.312L182.358 29.232L181.974 28.608H188.742V30H180.694ZM193.673 30.128C192.884 30.128 192.116 30.0053 191.369 29.76C190.633 29.5147 190.03 29.184 189.561 28.768L190.297 27.504C190.67 27.856 191.156 28.144 191.753 28.368C192.35 28.592 192.985 28.704 193.657 28.704C194.51 28.704 195.166 28.5227 195.625 28.16C196.084 27.7973 196.313 27.312 196.313 26.704C196.313 26.288 196.212 25.9253 196.009 25.616C195.806 25.3067 195.454 25.072 194.953 24.912C194.462 24.7413 193.785 24.656 192.921 24.656H190.377L190.969 18.8H197.289V20.192H191.561L192.393 19.408L191.929 24.032L191.097 23.264H193.257C194.377 23.264 195.278 23.408 195.961 23.696C196.644 23.984 197.14 24.384 197.449 24.896C197.758 25.3973 197.913 25.9787 197.913 26.64C197.913 27.28 197.758 27.8667 197.449 28.4C197.14 28.9227 196.67 29.344 196.041 29.664C195.422 29.9733 194.633 30.128 193.673 30.128Z" fill="#05162C"/>
<rect x="274.5" y="0.5" width="47" height="47" rx="11.5" stroke="white"/>
<path d="M300.43 17.93L306.5 24L300.43 30.07" stroke="#05162C" stroke-width="1.5" stroke-miterlimit="10" stroke-linecap="round" stroke-linejoin="round"/>
<path d="M289.5 24H306.33" stroke="#05162C" stroke-width="1.5" stroke-miterlimit="10" stroke-linecap="round" stroke-linejoin="round"/>
</svg>
