<svg width="16" height="16" viewBox="0 0 16 16" fill="none" xmlns="http://www.w3.org/2000/svg">
<g clip-path="url(#clip0_1755_5001)">
<path d="M8.00001 -1.90735e-06C6.82667 -1.90735e-06 5.75112 0.284443 4.77334 0.853332C3.79556 1.42222 3.02223 2.20444 2.45334 3.2C1.88445 4.19555 1.60001 5.26222 1.60001 6.4C1.60001 6.82667 1.63556 7.23555 1.70667 7.62667L1.76001 7.84C1.83112 8.26667 1.97334 8.69333 2.18667 9.12C2.61334 10.1156 3.20001 11.1111 3.94667 12.1067C4.94223 13.4222 6.20445 14.6844 7.73334 15.8933C7.80445 15.9644 7.89334 16 8.00001 16C8.10667 16 8.19556 15.9644 8.26667 15.8933C9.79556 14.6844 11.0578 13.4222 12.0533 12.1067C12.8 11.1111 13.3867 10.1156 13.8133 9.12C14.0267 8.69333 14.1689 8.26667 14.24 7.84L14.2933 7.62667C14.3645 7.2 14.4 6.79111 14.4 6.4C14.4 5.26222 14.1156 4.19555 13.5467 3.2C12.9778 2.20444 12.2045 1.42222 11.2267 0.853332C10.2489 0.284443 9.17334 -1.90735e-06 8.00001 -1.90735e-06ZM13.3867 7.46667V7.62667C13.28 8.01778 13.1556 8.39111 13.0133 8.74667C12.0889 10.88 10.4178 12.96 8.00001 14.9867C5.58223 12.96 3.91112 10.88 2.98667 8.74667C2.84445 8.39111 2.72001 8.01778 2.61334 7.62667V7.46667C2.54223 7.11111 2.50667 6.75556 2.50667 6.4C2.50667 5.40444 2.74667 4.48889 3.22667 3.65333C3.70667 2.81778 4.37334 2.15111 5.22667 1.65333C6.08001 1.15555 7.00445 0.906665 8.00001 0.906665C8.99556 0.906665 9.91112 1.15555 10.7467 1.65333C11.5822 2.15111 12.2489 2.81778 12.7467 3.65333C13.2445 4.48889 13.4933 5.40444 13.4933 6.4C13.4933 6.75556 13.4578 7.11111 13.3867 7.46667ZM8.00001 2.4C7.25334 2.4 6.5689 2.58667 5.94667 2.96C5.32445 3.33333 4.83556 3.83111 4.48001 4.45333C4.12445 5.07555 3.94667 5.75111 3.94667 6.48C3.94667 7.20889 4.12445 7.88444 4.48001 8.50667C4.83556 9.12889 5.32445 9.62667 5.94667 10C6.5689 10.3733 7.25334 10.56 8.00001 10.56C8.74667 10.56 9.43112 10.3733 10.0533 10C10.6756 9.62667 11.1645 9.12889 11.52 8.50667C11.8756 7.88444 12.0533 7.20889 12.0533 6.48C12.0533 5.75111 11.8756 5.07555 11.52 4.45333C11.1645 3.83111 10.6756 3.33333 10.0533 2.96C9.43112 2.58667 8.74667 2.4 8.00001 2.4ZM8.00001 9.65333C7.11112 9.65333 6.36445 9.34222 5.76001 8.72C5.15556 8.09778 4.85334 7.35111 4.85334 6.48C4.85334 5.60889 5.15556 4.86222 5.76001 4.24C6.36445 3.61778 7.10223 3.30667 7.97334 3.30667C8.84445 3.30667 9.59112 3.61778 10.2133 4.24C10.8356 4.86222 11.1467 5.60889 11.1467 6.48C11.1467 7.35111 10.8445 8.09778 10.24 8.72C9.63556 9.34222 8.8889 9.65333 8.00001 9.65333Z" fill="white"/>
</g>
<defs>
<clipPath id="clip0_1755_5001">
<rect width="16" height="16" fill="white" transform="matrix(1 0 0 -1 0 16)"/>
</clipPath>
</defs>
</svg>
