<svg width="32" height="33" viewBox="0 0 32 33" fill="none" xmlns="http://www.w3.org/2000/svg">
<path d="M24.9467 26.5001C23.84 28.1534 22.6667 29.7668 20.88 29.7934C19.0933 29.8334 18.52 28.7401 16.4933 28.7401C14.4533 28.7401 13.8267 29.7668 12.1333 29.8334C10.3867 29.9001 9.06668 28.0734 7.94668 26.4601C5.66668 23.1668 3.92001 17.1001 6.26668 13.0201C7.42668 10.9934 9.50668 9.71342 11.76 9.67342C13.4667 9.64675 15.0933 10.8334 16.1467 10.8334C17.1867 10.8334 19.16 9.40675 21.2267 9.62008C22.0933 9.66008 24.52 9.96675 26.08 12.2601C25.96 12.3401 23.1867 13.9668 23.2133 17.3401C23.2533 21.3668 26.7467 22.7134 26.7867 22.7268C26.7467 22.8201 26.2267 24.6468 24.9467 26.5001ZM17.3333 5.16675C18.3067 4.06008 19.92 3.22008 21.2533 3.16675C21.4267 4.72675 20.8 6.30008 19.8667 7.42008C18.9467 8.55342 17.4267 9.43342 15.9333 9.31342C15.7333 7.78008 16.48 6.18008 17.3333 5.16675Z" fill="white"/>
</svg>
