<svg width="340" height="43" viewBox="0 0 340 43" fill="none" xmlns="http://www.w3.org/2000/svg">
<path d="M5.52384 9.44201L9.01058 9.47508C9.05231 9.47587 9.09315 9.48724 9.1293 9.50811C9.16544 9.52897 9.1957 9.55866 9.21726 9.5944L10.9893 12.5975C11.0165 12.6429 11.0578 12.6782 11.1069 12.6981C11.156 12.718 11.2102 12.7213 11.2614 12.7076C11.3126 12.6939 11.3579 12.6639 11.3905 12.6221C11.4231 12.5804 11.4412 12.5291 11.442 12.4762L11.4751 8.98941C11.4759 8.94768 11.4873 8.90684 11.5081 8.8707C11.529 8.83455 11.5587 8.80429 11.5944 8.78274L14.5975 7.01073C14.6429 6.98349 14.6783 6.9422 14.6981 6.89309C14.718 6.84399 14.7213 6.78975 14.7076 6.73858C14.6939 6.68741 14.6639 6.64211 14.6221 6.60951C14.5804 6.57692 14.5291 6.55882 14.4762 6.55795L10.9894 6.52488C10.9477 6.52409 10.9069 6.51272 10.8707 6.49185C10.8346 6.47099 10.8043 6.4413 10.7828 6.40556L9.01076 3.40249C8.98352 3.35705 8.94223 3.32173 8.89313 3.30186C8.84402 3.28199 8.78978 3.27866 8.73861 3.29237C8.68745 3.30608 8.64214 3.33609 8.60955 3.37785C8.57696 3.4196 8.55886 3.47084 8.55798 3.52381L8.52492 7.01055C8.52412 7.05228 8.51275 7.09312 8.49189 7.12926C8.47102 7.16541 8.44133 7.19567 8.40559 7.21722L5.40252 8.98923C5.35709 9.01647 5.32176 9.05776 5.30189 9.10687C5.28203 9.15597 5.2787 9.21021 5.29241 9.26138C5.30612 9.31255 5.33612 9.35785 5.37788 9.39045C5.41964 9.42304 5.47088 9.44114 5.52384 9.44201Z" stroke="#145DB8" stroke-width="0.46875" stroke-linecap="round" stroke-linejoin="round"/>
<path d="M37.5238 9.44201L41.0106 9.47508C41.0523 9.47587 41.0932 9.48724 41.1293 9.50811C41.1654 9.52897 41.1957 9.55866 41.2173 9.5944L42.9893 12.5975C43.0165 12.6429 43.0578 12.6782 43.1069 12.6981C43.156 12.718 43.2102 12.7213 43.2614 12.7076C43.3126 12.6939 43.3579 12.6639 43.3905 12.6221C43.4231 12.5804 43.4412 12.5291 43.442 12.4762L43.4751 8.98941C43.4759 8.94768 43.4873 8.90684 43.5081 8.8707C43.529 8.83455 43.5587 8.80429 43.5944 8.78274L46.5975 7.01073C46.6429 6.98349 46.6783 6.9422 46.6981 6.89309C46.718 6.84399 46.7213 6.78975 46.7076 6.73858C46.6939 6.68741 46.6639 6.64211 46.6221 6.60951C46.5804 6.57692 46.5291 6.55882 46.4762 6.55795L42.9894 6.52488C42.9477 6.52409 42.9069 6.51272 42.8707 6.49185C42.8346 6.47099 42.8043 6.4413 42.7828 6.40556L41.0108 3.40249C40.9835 3.35705 40.9422 3.32173 40.8931 3.30186C40.844 3.28199 40.7898 3.27866 40.7386 3.29237C40.6874 3.30608 40.6421 3.33609 40.6095 3.37785C40.577 3.4196 40.5589 3.47084 40.558 3.52381L40.5249 7.01055C40.5241 7.05228 40.5128 7.09312 40.4919 7.12926C40.471 7.16541 40.4413 7.19567 40.4056 7.21722L37.4025 8.98923C37.3571 9.01647 37.3218 9.05776 37.3019 9.10687C37.282 9.15597 37.2787 9.21021 37.2924 9.26138C37.3061 9.31255 37.3361 9.35785 37.3779 9.39045C37.4196 9.42304 37.4709 9.44114 37.5238 9.44201Z" stroke="#145DB8" stroke-width="0.46875" stroke-linecap="round" stroke-linejoin="round"/>
<path d="M69.5238 9.44201L73.0106 9.47508C73.0523 9.47587 73.0932 9.48724 73.1293 9.50811C73.1654 9.52897 73.1957 9.55866 73.2173 9.5944L74.9893 12.5975C75.0165 12.6429 75.0578 12.6782 75.1069 12.6981C75.156 12.718 75.2102 12.7213 75.2614 12.7076C75.3126 12.6939 75.3579 12.6639 75.3905 12.6221C75.4231 12.5804 75.4412 12.5291 75.442 12.4762L75.4751 8.98941C75.4759 8.94768 75.4873 8.90684 75.5081 8.8707C75.529 8.83455 75.5587 8.80429 75.5944 8.78274L78.5975 7.01073C78.6429 6.98349 78.6783 6.9422 78.6981 6.89309C78.718 6.84399 78.7213 6.78975 78.7076 6.73858C78.6939 6.68741 78.6639 6.64211 78.6221 6.60951C78.5804 6.57692 78.5291 6.55882 78.4762 6.55795L74.9894 6.52488C74.9477 6.52409 74.9069 6.51272 74.8707 6.49185C74.8346 6.47099 74.8043 6.4413 74.7828 6.40556L73.0108 3.40249C72.9835 3.35705 72.9422 3.32173 72.8931 3.30186C72.844 3.28199 72.7898 3.27866 72.7386 3.29237C72.6874 3.30608 72.6421 3.33609 72.6095 3.37785C72.577 3.4196 72.5589 3.47084 72.558 3.52381L72.5249 7.01055C72.5241 7.05228 72.5128 7.09312 72.4919 7.12926C72.471 7.16541 72.4413 7.19567 72.4056 7.21722L69.4025 8.98923C69.3571 9.01647 69.3218 9.05776 69.3019 9.10687C69.282 9.15597 69.2787 9.21021 69.2924 9.26138C69.3061 9.31255 69.3361 9.35785 69.3779 9.39045C69.4196 9.42304 69.4709 9.44114 69.5238 9.44201Z" fill="url(#paint0_linear_1114_4091)" stroke="#145DB8" stroke-width="0.125" stroke-linecap="round" stroke-linejoin="round"/>
<path d="M101.524 9.44201L105.011 9.47508C105.052 9.47587 105.093 9.48724 105.129 9.50811C105.165 9.52897 105.196 9.55866 105.217 9.5944L106.989 12.5975C107.017 12.6429 107.058 12.6782 107.107 12.6981C107.156 12.718 107.21 12.7213 107.261 12.7076C107.313 12.6939 107.358 12.6639 107.39 12.6221C107.423 12.5804 107.441 12.5291 107.442 12.4762L107.475 8.98941C107.476 8.94768 107.487 8.90684 107.508 8.8707C107.529 8.83455 107.559 8.80429 107.594 8.78274L110.598 7.01073C110.643 6.98349 110.678 6.9422 110.698 6.89309C110.718 6.84399 110.721 6.78975 110.708 6.73858C110.694 6.68741 110.664 6.64211 110.622 6.60951C110.58 6.57692 110.529 6.55882 110.476 6.55795L106.989 6.52488C106.948 6.52409 106.907 6.51272 106.871 6.49185C106.835 6.47099 106.804 6.4413 106.783 6.40556L105.011 3.40249C104.984 3.35705 104.942 3.32173 104.893 3.30186C104.844 3.28199 104.79 3.27866 104.739 3.29237C104.687 3.30608 104.642 3.33609 104.61 3.37785C104.577 3.4196 104.559 3.47084 104.558 3.52381L104.525 7.01055C104.524 7.05228 104.513 7.09312 104.492 7.12926C104.471 7.16541 104.441 7.19567 104.406 7.21722L101.403 8.98923C101.357 9.01647 101.322 9.05776 101.302 9.10687C101.282 9.15597 101.279 9.21021 101.292 9.26138C101.306 9.31255 101.336 9.35785 101.378 9.39045C101.42 9.42304 101.471 9.44114 101.524 9.44201Z" stroke="#145DB8" stroke-width="0.46875" stroke-linecap="round" stroke-linejoin="round"/>
<path d="M133.524 9.44201L137.011 9.47508C137.052 9.47587 137.093 9.48724 137.129 9.50811C137.165 9.52897 137.196 9.55866 137.217 9.5944L138.989 12.5975C139.017 12.6429 139.058 12.6782 139.107 12.6981C139.156 12.718 139.21 12.7213 139.261 12.7076C139.313 12.6939 139.358 12.6639 139.39 12.6221C139.423 12.5804 139.441 12.5291 139.442 12.4762L139.475 8.98941C139.476 8.94768 139.487 8.90684 139.508 8.8707C139.529 8.83455 139.559 8.80429 139.594 8.78274L142.598 7.01073C142.643 6.98349 142.678 6.9422 142.698 6.89309C142.718 6.84399 142.721 6.78975 142.708 6.73858C142.694 6.68741 142.664 6.64211 142.622 6.60951C142.58 6.57692 142.529 6.55882 142.476 6.55795L138.989 6.52488C138.948 6.52409 138.907 6.51272 138.871 6.49185C138.835 6.47099 138.804 6.4413 138.783 6.40556L137.011 3.40249C136.984 3.35705 136.942 3.32173 136.893 3.30186C136.844 3.28199 136.79 3.27866 136.739 3.29237C136.687 3.30608 136.642 3.33609 136.61 3.37785C136.577 3.4196 136.559 3.47084 136.558 3.52381L136.525 7.01055C136.524 7.05228 136.513 7.09312 136.492 7.12926C136.471 7.16541 136.441 7.19567 136.406 7.21722L133.403 8.98923C133.357 9.01647 133.322 9.05776 133.302 9.10687C133.282 9.15597 133.279 9.21021 133.292 9.26138C133.306 9.31255 133.336 9.35785 133.378 9.39045C133.42 9.42304 133.471 9.44114 133.524 9.44201Z" stroke="#145DB8" stroke-width="0.46875" stroke-linecap="round" stroke-linejoin="round"/>
<path d="M165.524 9.44201L169.011 9.47508C169.052 9.47587 169.093 9.48724 169.129 9.50811C169.165 9.52897 169.196 9.55866 169.217 9.5944L170.989 12.5975C171.017 12.6429 171.058 12.6782 171.107 12.6981C171.156 12.718 171.21 12.7213 171.261 12.7076C171.313 12.6939 171.358 12.6639 171.39 12.6221C171.423 12.5804 171.441 12.5291 171.442 12.4762L171.475 8.98941C171.476 8.94768 171.487 8.90684 171.508 8.8707C171.529 8.83455 171.559 8.80429 171.594 8.78274L174.598 7.01073C174.643 6.98349 174.678 6.9422 174.698 6.89309C174.718 6.84399 174.721 6.78975 174.708 6.73858C174.694 6.68741 174.664 6.64211 174.622 6.60951C174.58 6.57692 174.529 6.55882 174.476 6.55795L170.989 6.52488C170.948 6.52409 170.907 6.51272 170.871 6.49185C170.835 6.47099 170.804 6.4413 170.783 6.40556L169.011 3.40249C168.984 3.35705 168.942 3.32173 168.893 3.30186C168.844 3.28199 168.79 3.27866 168.739 3.29237C168.687 3.30608 168.642 3.33609 168.61 3.37785C168.577 3.4196 168.559 3.47084 168.558 3.52381L168.525 7.01055C168.524 7.05228 168.513 7.09312 168.492 7.12926C168.471 7.16541 168.441 7.19567 168.406 7.21722L165.403 8.98923C165.357 9.01647 165.322 9.05776 165.302 9.10687C165.282 9.15597 165.279 9.21021 165.292 9.26138C165.306 9.31255 165.336 9.35785 165.378 9.39045C165.42 9.42304 165.471 9.44114 165.524 9.44201Z" stroke="#145DB8" stroke-width="0.46875" stroke-linecap="round" stroke-linejoin="round"/>
<path d="M197.524 9.44201L201.011 9.47508C201.052 9.47587 201.093 9.48724 201.129 9.50811C201.165 9.52897 201.196 9.55866 201.217 9.5944L202.989 12.5975C203.017 12.6429 203.058 12.6782 203.107 12.6981C203.156 12.718 203.21 12.7213 203.261 12.7076C203.313 12.6939 203.358 12.6639 203.39 12.6221C203.423 12.5804 203.441 12.5291 203.442 12.4762L203.475 8.98941C203.476 8.94768 203.487 8.90684 203.508 8.8707C203.529 8.83455 203.559 8.80429 203.594 8.78274L206.598 7.01073C206.643 6.98349 206.678 6.9422 206.698 6.89309C206.718 6.84399 206.721 6.78975 206.708 6.73858C206.694 6.68741 206.664 6.64211 206.622 6.60951C206.58 6.57692 206.529 6.55882 206.476 6.55795L202.989 6.52488C202.948 6.52409 202.907 6.51272 202.871 6.49185C202.835 6.47099 202.804 6.4413 202.783 6.40556L201.011 3.40249C200.984 3.35705 200.942 3.32173 200.893 3.30186C200.844 3.28199 200.79 3.27866 200.739 3.29237C200.687 3.30608 200.642 3.33609 200.61 3.37785C200.577 3.4196 200.559 3.47084 200.558 3.52381L200.525 7.01055C200.524 7.05228 200.513 7.09312 200.492 7.12926C200.471 7.16541 200.441 7.19567 200.406 7.21722L197.403 8.98923C197.357 9.01647 197.322 9.05776 197.302 9.10687C197.282 9.15597 197.279 9.21021 197.292 9.26138C197.306 9.31255 197.336 9.35785 197.378 9.39045C197.42 9.42304 197.471 9.44114 197.524 9.44201Z" fill="url(#paint1_linear_1114_4091)" stroke="#145DB8" stroke-width="0.125" stroke-linecap="round" stroke-linejoin="round"/>
<path d="M229.524 9.44201L233.011 9.47508C233.052 9.47587 233.093 9.48724 233.129 9.50811C233.165 9.52897 233.196 9.55866 233.217 9.5944L234.989 12.5975C235.017 12.6429 235.058 12.6782 235.107 12.6981C235.156 12.718 235.21 12.7213 235.261 12.7076C235.313 12.6939 235.358 12.6639 235.39 12.6221C235.423 12.5804 235.441 12.5291 235.442 12.4762L235.475 8.98941C235.476 8.94768 235.487 8.90684 235.508 8.8707C235.529 8.83455 235.559 8.80429 235.594 8.78274L238.598 7.01073C238.643 6.98349 238.678 6.9422 238.698 6.89309C238.718 6.84399 238.721 6.78975 238.708 6.73858C238.694 6.68741 238.664 6.64211 238.622 6.60951C238.58 6.57692 238.529 6.55882 238.476 6.55795L234.989 6.52488C234.948 6.52409 234.907 6.51272 234.871 6.49185C234.835 6.47099 234.804 6.4413 234.783 6.40556L233.011 3.40249C232.984 3.35705 232.942 3.32173 232.893 3.30186C232.844 3.28199 232.79 3.27866 232.739 3.29237C232.687 3.30608 232.642 3.33609 232.61 3.37785C232.577 3.4196 232.559 3.47084 232.558 3.52381L232.525 7.01055C232.524 7.05228 232.513 7.09312 232.492 7.12926C232.471 7.16541 232.441 7.19567 232.406 7.21722L229.403 8.98923C229.357 9.01647 229.322 9.05776 229.302 9.10687C229.282 9.15597 229.279 9.21021 229.292 9.26138C229.306 9.31255 229.336 9.35785 229.378 9.39045C229.42 9.42304 229.471 9.44114 229.524 9.44201Z" stroke="#145DB8" stroke-width="0.46875" stroke-linecap="round" stroke-linejoin="round"/>
<path d="M261.524 9.44201L265.011 9.47508C265.052 9.47587 265.093 9.48724 265.129 9.50811C265.165 9.52897 265.196 9.55866 265.217 9.5944L266.989 12.5975C267.017 12.6429 267.058 12.6782 267.107 12.6981C267.156 12.718 267.21 12.7213 267.261 12.7076C267.313 12.6939 267.358 12.6639 267.39 12.6221C267.423 12.5804 267.441 12.5291 267.442 12.4762L267.475 8.98941C267.476 8.94768 267.487 8.90684 267.508 8.8707C267.529 8.83455 267.559 8.80429 267.594 8.78274L270.598 7.01073C270.643 6.98349 270.678 6.9422 270.698 6.89309C270.718 6.84399 270.721 6.78975 270.708 6.73858C270.694 6.68741 270.664 6.64211 270.622 6.60951C270.58 6.57692 270.529 6.55882 270.476 6.55795L266.989 6.52488C266.948 6.52409 266.907 6.51272 266.871 6.49185C266.835 6.47099 266.804 6.4413 266.783 6.40556L265.011 3.40249C264.984 3.35705 264.942 3.32173 264.893 3.30186C264.844 3.28199 264.79 3.27866 264.739 3.29237C264.687 3.30608 264.642 3.33609 264.61 3.37785C264.577 3.4196 264.559 3.47084 264.558 3.52381L264.525 7.01055C264.524 7.05228 264.513 7.09312 264.492 7.12926C264.471 7.16541 264.441 7.19567 264.406 7.21722L261.403 8.98923C261.357 9.01647 261.322 9.05776 261.302 9.10687C261.282 9.15597 261.279 9.21021 261.292 9.26138C261.306 9.31255 261.336 9.35785 261.378 9.39045C261.42 9.42304 261.471 9.44114 261.524 9.44201Z" stroke="#145DB8" stroke-width="0.46875" stroke-linecap="round" stroke-linejoin="round"/>
<path d="M293.524 9.44201L297.011 9.47508C297.052 9.47587 297.093 9.48724 297.129 9.50811C297.165 9.52897 297.196 9.55866 297.217 9.5944L298.989 12.5975C299.017 12.6429 299.058 12.6782 299.107 12.6981C299.156 12.718 299.21 12.7213 299.261 12.7076C299.313 12.6939 299.358 12.6639 299.39 12.6221C299.423 12.5804 299.441 12.5291 299.442 12.4762L299.475 8.98941C299.476 8.94768 299.487 8.90684 299.508 8.8707C299.529 8.83455 299.559 8.80429 299.594 8.78274L302.598 7.01073C302.643 6.98349 302.678 6.9422 302.698 6.89309C302.718 6.84399 302.721 6.78975 302.708 6.73858C302.694 6.68741 302.664 6.64211 302.622 6.60951C302.58 6.57692 302.529 6.55882 302.476 6.55795L298.989 6.52488C298.948 6.52409 298.907 6.51272 298.871 6.49185C298.835 6.47099 298.804 6.4413 298.783 6.40556L297.011 3.40249C296.984 3.35705 296.942 3.32173 296.893 3.30186C296.844 3.28199 296.79 3.27866 296.739 3.29237C296.687 3.30608 296.642 3.33609 296.61 3.37785C296.577 3.4196 296.559 3.47084 296.558 3.52381L296.525 7.01055C296.524 7.05228 296.513 7.09312 296.492 7.12926C296.471 7.16541 296.441 7.19567 296.406 7.21722L293.403 8.98923C293.357 9.01647 293.322 9.05776 293.302 9.10687C293.282 9.15597 293.279 9.21021 293.292 9.26138C293.306 9.31255 293.336 9.35785 293.378 9.39045C293.42 9.42304 293.471 9.44114 293.524 9.44201Z" stroke="#145DB8" stroke-width="0.46875" stroke-linecap="round" stroke-linejoin="round"/>
<path d="M325.524 9.44201L329.011 9.47508C329.052 9.47587 329.093 9.48724 329.129 9.50811C329.165 9.52897 329.196 9.55866 329.217 9.5944L330.989 12.5975C331.017 12.6429 331.058 12.6782 331.107 12.6981C331.156 12.718 331.21 12.7213 331.261 12.7076C331.313 12.6939 331.358 12.6639 331.39 12.6221C331.423 12.5804 331.441 12.5291 331.442 12.4762L331.475 8.98941C331.476 8.94768 331.487 8.90684 331.508 8.8707C331.529 8.83455 331.559 8.80429 331.594 8.78274L334.598 7.01073C334.643 6.98349 334.678 6.9422 334.698 6.89309C334.718 6.84399 334.721 6.78975 334.708 6.73858C334.694 6.68741 334.664 6.64211 334.622 6.60951C334.58 6.57692 334.529 6.55882 334.476 6.55795L330.989 6.52488C330.948 6.52409 330.907 6.51272 330.871 6.49185C330.835 6.47099 330.804 6.4413 330.783 6.40556L329.011 3.40249C328.984 3.35705 328.942 3.32173 328.893 3.30186C328.844 3.28199 328.79 3.27866 328.739 3.29237C328.687 3.30608 328.642 3.33609 328.61 3.37785C328.577 3.4196 328.559 3.47084 328.558 3.52381L328.525 7.01055C328.524 7.05228 328.513 7.09312 328.492 7.12926C328.471 7.16541 328.441 7.19567 328.406 7.21722L325.403 8.98923C325.357 9.01647 325.322 9.05776 325.302 9.10687C325.282 9.15597 325.279 9.21021 325.292 9.26138C325.306 9.31255 325.336 9.35785 325.378 9.39045C325.42 9.42304 325.471 9.44114 325.524 9.44201Z" fill="url(#paint2_linear_1114_4091)" stroke="#145DB8" stroke-width="0.125" stroke-linecap="round" stroke-linejoin="round"/>
<path d="M5.52384 36.442L9.01058 36.4751C9.05231 36.4759 9.09315 36.4872 9.1293 36.5081C9.16544 36.529 9.1957 36.5587 9.21726 36.5944L10.9893 39.5975C11.0165 39.6429 11.0578 39.6782 11.1069 39.6981C11.156 39.718 11.2102 39.7213 11.2614 39.7076C11.3126 39.6939 11.3579 39.6639 11.3905 39.6221C11.4231 39.5804 11.4412 39.5291 11.442 39.4762L11.4751 35.9894C11.4759 35.9477 11.4873 35.9068 11.5081 35.8707C11.529 35.8346 11.5587 35.8043 11.5944 35.7827L14.5975 34.0107C14.6429 33.9835 14.6783 33.9422 14.6981 33.8931C14.718 33.844 14.7213 33.7897 14.7076 33.7386C14.6939 33.6874 14.6639 33.6421 14.6221 33.6095C14.5804 33.5769 14.5291 33.5588 14.4762 33.558L10.9894 33.5249C10.9477 33.5241 10.9069 33.5127 10.8707 33.4919C10.8346 33.471 10.8043 33.4413 10.7828 33.4056L9.01076 30.4025C8.98352 30.3571 8.94223 30.3217 8.89313 30.3019C8.84402 30.282 8.78978 30.2787 8.73861 30.2924C8.68745 30.3061 8.64214 30.3361 8.60955 30.3778C8.57696 30.4196 8.55886 30.4708 8.55798 30.5238L8.52492 34.0105C8.52412 34.0523 8.51275 34.0931 8.49189 34.1293C8.47102 34.1654 8.44133 34.1957 8.40559 34.2172L5.40252 35.9892C5.35709 36.0165 5.32176 36.0578 5.30189 36.1069C5.28203 36.156 5.2787 36.2102 5.29241 36.2614C5.30612 36.3125 5.33612 36.3579 5.37788 36.3904C5.41964 36.423 5.47088 36.4411 5.52384 36.442Z" stroke="#145DB8" stroke-width="0.46875" stroke-linecap="round" stroke-linejoin="round"/>
<path d="M37.5238 36.442L41.0106 36.4751C41.0523 36.4759 41.0932 36.4872 41.1293 36.5081C41.1654 36.529 41.1957 36.5587 41.2173 36.5944L42.9893 39.5975C43.0165 39.6429 43.0578 39.6782 43.1069 39.6981C43.156 39.718 43.2102 39.7213 43.2614 39.7076C43.3126 39.6939 43.3579 39.6639 43.3905 39.6221C43.4231 39.5804 43.4412 39.5291 43.442 39.4762L43.4751 35.9894C43.4759 35.9477 43.4873 35.9068 43.5081 35.8707C43.529 35.8346 43.5587 35.8043 43.5944 35.7827L46.5975 34.0107C46.6429 33.9835 46.6783 33.9422 46.6981 33.8931C46.718 33.844 46.7213 33.7897 46.7076 33.7386C46.6939 33.6874 46.6639 33.6421 46.6221 33.6095C46.5804 33.5769 46.5291 33.5588 46.4762 33.558L42.9894 33.5249C42.9477 33.5241 42.9069 33.5127 42.8707 33.4919C42.8346 33.471 42.8043 33.4413 42.7828 33.4056L41.0108 30.4025C40.9835 30.3571 40.9422 30.3217 40.8931 30.3019C40.844 30.282 40.7898 30.2787 40.7386 30.2924C40.6874 30.3061 40.6421 30.3361 40.6095 30.3778C40.577 30.4196 40.5589 30.4708 40.558 30.5238L40.5249 34.0105C40.5241 34.0523 40.5128 34.0931 40.4919 34.1293C40.471 34.1654 40.4413 34.1957 40.4056 34.2172L37.4025 35.9892C37.3571 36.0165 37.3218 36.0578 37.3019 36.1069C37.282 36.156 37.2787 36.2102 37.2924 36.2614C37.3061 36.3125 37.3361 36.3579 37.3779 36.3904C37.4196 36.423 37.4709 36.4411 37.5238 36.442Z" stroke="#145DB8" stroke-width="0.46875" stroke-linecap="round" stroke-linejoin="round"/>
<path d="M69.5238 36.442L73.0106 36.4751C73.0523 36.4759 73.0932 36.4872 73.1293 36.5081C73.1654 36.529 73.1957 36.5587 73.2173 36.5944L74.9893 39.5975C75.0165 39.6429 75.0578 39.6782 75.1069 39.6981C75.156 39.718 75.2102 39.7213 75.2614 39.7076C75.3126 39.6939 75.3579 39.6639 75.3905 39.6221C75.4231 39.5804 75.4412 39.5291 75.442 39.4762L75.4751 35.9894C75.4759 35.9477 75.4873 35.9068 75.5081 35.8707C75.529 35.8346 75.5587 35.8043 75.5944 35.7827L78.5975 34.0107C78.6429 33.9835 78.6783 33.9422 78.6981 33.8931C78.718 33.844 78.7213 33.7897 78.7076 33.7386C78.6939 33.6874 78.6639 33.6421 78.6221 33.6095C78.5804 33.5769 78.5291 33.5588 78.4762 33.558L74.9894 33.5249C74.9477 33.5241 74.9069 33.5127 74.8707 33.4919C74.8346 33.471 74.8043 33.4413 74.7828 33.4056L73.0108 30.4025C72.9835 30.3571 72.9422 30.3217 72.8931 30.3019C72.844 30.282 72.7898 30.2787 72.7386 30.2924C72.6874 30.3061 72.6421 30.3361 72.6095 30.3778C72.577 30.4196 72.5589 30.4708 72.558 30.5238L72.5249 34.0105C72.5241 34.0523 72.5128 34.0931 72.4919 34.1293C72.471 34.1654 72.4413 34.1957 72.4056 34.2172L69.4025 35.9892C69.3571 36.0165 69.3218 36.0578 69.3019 36.1069C69.282 36.156 69.2787 36.2102 69.2924 36.2614C69.3061 36.3125 69.3361 36.3579 69.3779 36.3904C69.4196 36.423 69.4709 36.4411 69.5238 36.442Z" fill="url(#paint3_linear_1114_4091)" stroke="#145DB8" stroke-width="0.125" stroke-linecap="round" stroke-linejoin="round"/>
<path d="M101.524 36.442L105.011 36.4751C105.052 36.4759 105.093 36.4872 105.129 36.5081C105.165 36.529 105.196 36.5587 105.217 36.5944L106.989 39.5975C107.017 39.6429 107.058 39.6782 107.107 39.6981C107.156 39.718 107.21 39.7213 107.261 39.7076C107.313 39.6939 107.358 39.6639 107.39 39.6221C107.423 39.5804 107.441 39.5291 107.442 39.4762L107.475 35.9894C107.476 35.9477 107.487 35.9068 107.508 35.8707C107.529 35.8346 107.559 35.8043 107.594 35.7827L110.598 34.0107C110.643 33.9835 110.678 33.9422 110.698 33.8931C110.718 33.844 110.721 33.7897 110.708 33.7386C110.694 33.6874 110.664 33.6421 110.622 33.6095C110.58 33.5769 110.529 33.5588 110.476 33.558L106.989 33.5249C106.948 33.5241 106.907 33.5127 106.871 33.4919C106.835 33.471 106.804 33.4413 106.783 33.4056L105.011 30.4025C104.984 30.3571 104.942 30.3217 104.893 30.3019C104.844 30.282 104.79 30.2787 104.739 30.2924C104.687 30.3061 104.642 30.3361 104.61 30.3778C104.577 30.4196 104.559 30.4708 104.558 30.5238L104.525 34.0105C104.524 34.0523 104.513 34.0931 104.492 34.1293C104.471 34.1654 104.441 34.1957 104.406 34.2172L101.403 35.9892C101.357 36.0165 101.322 36.0578 101.302 36.1069C101.282 36.156 101.279 36.2102 101.292 36.2614C101.306 36.3125 101.336 36.3579 101.378 36.3904C101.42 36.423 101.471 36.4411 101.524 36.442Z" stroke="#145DB8" stroke-width="0.46875" stroke-linecap="round" stroke-linejoin="round"/>
<path d="M133.524 36.442L137.011 36.4751C137.052 36.4759 137.093 36.4872 137.129 36.5081C137.165 36.529 137.196 36.5587 137.217 36.5944L138.989 39.5975C139.017 39.6429 139.058 39.6782 139.107 39.6981C139.156 39.718 139.21 39.7213 139.261 39.7076C139.313 39.6939 139.358 39.6639 139.39 39.6221C139.423 39.5804 139.441 39.5291 139.442 39.4762L139.475 35.9894C139.476 35.9477 139.487 35.9068 139.508 35.8707C139.529 35.8346 139.559 35.8043 139.594 35.7827L142.598 34.0107C142.643 33.9835 142.678 33.9422 142.698 33.8931C142.718 33.844 142.721 33.7897 142.708 33.7386C142.694 33.6874 142.664 33.6421 142.622 33.6095C142.58 33.5769 142.529 33.5588 142.476 33.558L138.989 33.5249C138.948 33.5241 138.907 33.5127 138.871 33.4919C138.835 33.471 138.804 33.4413 138.783 33.4056L137.011 30.4025C136.984 30.3571 136.942 30.3217 136.893 30.3019C136.844 30.282 136.79 30.2787 136.739 30.2924C136.687 30.3061 136.642 30.3361 136.61 30.3778C136.577 30.4196 136.559 30.4708 136.558 30.5238L136.525 34.0105C136.524 34.0523 136.513 34.0931 136.492 34.1293C136.471 34.1654 136.441 34.1957 136.406 34.2172L133.403 35.9892C133.357 36.0165 133.322 36.0578 133.302 36.1069C133.282 36.156 133.279 36.2102 133.292 36.2614C133.306 36.3125 133.336 36.3579 133.378 36.3904C133.42 36.423 133.471 36.4411 133.524 36.442Z" stroke="#145DB8" stroke-width="0.46875" stroke-linecap="round" stroke-linejoin="round"/>
<path d="M165.524 36.442L169.011 36.4751C169.052 36.4759 169.093 36.4872 169.129 36.5081C169.165 36.529 169.196 36.5587 169.217 36.5944L170.989 39.5975C171.017 39.6429 171.058 39.6782 171.107 39.6981C171.156 39.718 171.21 39.7213 171.261 39.7076C171.313 39.6939 171.358 39.6639 171.39 39.6221C171.423 39.5804 171.441 39.5291 171.442 39.4762L171.475 35.9894C171.476 35.9477 171.487 35.9068 171.508 35.8707C171.529 35.8346 171.559 35.8043 171.594 35.7827L174.598 34.0107C174.643 33.9835 174.678 33.9422 174.698 33.8931C174.718 33.844 174.721 33.7897 174.708 33.7386C174.694 33.6874 174.664 33.6421 174.622 33.6095C174.58 33.5769 174.529 33.5588 174.476 33.558L170.989 33.5249C170.948 33.5241 170.907 33.5127 170.871 33.4919C170.835 33.471 170.804 33.4413 170.783 33.4056L169.011 30.4025C168.984 30.3571 168.942 30.3217 168.893 30.3019C168.844 30.282 168.79 30.2787 168.739 30.2924C168.687 30.3061 168.642 30.3361 168.61 30.3778C168.577 30.4196 168.559 30.4708 168.558 30.5238L168.525 34.0105C168.524 34.0523 168.513 34.0931 168.492 34.1293C168.471 34.1654 168.441 34.1957 168.406 34.2172L165.403 35.9892C165.357 36.0165 165.322 36.0578 165.302 36.1069C165.282 36.156 165.279 36.2102 165.292 36.2614C165.306 36.3125 165.336 36.3579 165.378 36.3904C165.42 36.423 165.471 36.4411 165.524 36.442Z" stroke="#145DB8" stroke-width="0.46875" stroke-linecap="round" stroke-linejoin="round"/>
<path d="M197.524 36.442L201.011 36.4751C201.052 36.4759 201.093 36.4872 201.129 36.5081C201.165 36.529 201.196 36.5587 201.217 36.5944L202.989 39.5975C203.017 39.6429 203.058 39.6782 203.107 39.6981C203.156 39.718 203.21 39.7213 203.261 39.7076C203.313 39.6939 203.358 39.6639 203.39 39.6221C203.423 39.5804 203.441 39.5291 203.442 39.4762L203.475 35.9894C203.476 35.9477 203.487 35.9068 203.508 35.8707C203.529 35.8346 203.559 35.8043 203.594 35.7827L206.598 34.0107C206.643 33.9835 206.678 33.9422 206.698 33.8931C206.718 33.844 206.721 33.7897 206.708 33.7386C206.694 33.6874 206.664 33.6421 206.622 33.6095C206.58 33.5769 206.529 33.5588 206.476 33.558L202.989 33.5249C202.948 33.5241 202.907 33.5127 202.871 33.4919C202.835 33.471 202.804 33.4413 202.783 33.4056L201.011 30.4025C200.984 30.3571 200.942 30.3217 200.893 30.3019C200.844 30.282 200.79 30.2787 200.739 30.2924C200.687 30.3061 200.642 30.3361 200.61 30.3778C200.577 30.4196 200.559 30.4708 200.558 30.5238L200.525 34.0105C200.524 34.0523 200.513 34.0931 200.492 34.1293C200.471 34.1654 200.441 34.1957 200.406 34.2172L197.403 35.9892C197.357 36.0165 197.322 36.0578 197.302 36.1069C197.282 36.156 197.279 36.2102 197.292 36.2614C197.306 36.3125 197.336 36.3579 197.378 36.3904C197.42 36.423 197.471 36.4411 197.524 36.442Z" fill="url(#paint4_linear_1114_4091)" stroke="#145DB8" stroke-width="0.125" stroke-linecap="round" stroke-linejoin="round"/>
<path d="M229.524 36.442L233.011 36.4751C233.052 36.4759 233.093 36.4872 233.129 36.5081C233.165 36.529 233.196 36.5587 233.217 36.5944L234.989 39.5975C235.017 39.6429 235.058 39.6782 235.107 39.6981C235.156 39.718 235.21 39.7213 235.261 39.7076C235.313 39.6939 235.358 39.6639 235.39 39.6221C235.423 39.5804 235.441 39.5291 235.442 39.4762L235.475 35.9894C235.476 35.9477 235.487 35.9068 235.508 35.8707C235.529 35.8346 235.559 35.8043 235.594 35.7827L238.598 34.0107C238.643 33.9835 238.678 33.9422 238.698 33.8931C238.718 33.844 238.721 33.7897 238.708 33.7386C238.694 33.6874 238.664 33.6421 238.622 33.6095C238.58 33.5769 238.529 33.5588 238.476 33.558L234.989 33.5249C234.948 33.5241 234.907 33.5127 234.871 33.4919C234.835 33.471 234.804 33.4413 234.783 33.4056L233.011 30.4025C232.984 30.3571 232.942 30.3217 232.893 30.3019C232.844 30.282 232.79 30.2787 232.739 30.2924C232.687 30.3061 232.642 30.3361 232.61 30.3778C232.577 30.4196 232.559 30.4708 232.558 30.5238L232.525 34.0105C232.524 34.0523 232.513 34.0931 232.492 34.1293C232.471 34.1654 232.441 34.1957 232.406 34.2172L229.403 35.9892C229.357 36.0165 229.322 36.0578 229.302 36.1069C229.282 36.156 229.279 36.2102 229.292 36.2614C229.306 36.3125 229.336 36.3579 229.378 36.3904C229.42 36.423 229.471 36.4411 229.524 36.442Z" stroke="#145DB8" stroke-width="0.46875" stroke-linecap="round" stroke-linejoin="round"/>
<path d="M261.524 36.442L265.011 36.4751C265.052 36.4759 265.093 36.4872 265.129 36.5081C265.165 36.529 265.196 36.5587 265.217 36.5944L266.989 39.5975C267.017 39.6429 267.058 39.6782 267.107 39.6981C267.156 39.718 267.21 39.7213 267.261 39.7076C267.313 39.6939 267.358 39.6639 267.39 39.6221C267.423 39.5804 267.441 39.5291 267.442 39.4762L267.475 35.9894C267.476 35.9477 267.487 35.9068 267.508 35.8707C267.529 35.8346 267.559 35.8043 267.594 35.7827L270.598 34.0107C270.643 33.9835 270.678 33.9422 270.698 33.8931C270.718 33.844 270.721 33.7897 270.708 33.7386C270.694 33.6874 270.664 33.6421 270.622 33.6095C270.58 33.5769 270.529 33.5588 270.476 33.558L266.989 33.5249C266.948 33.5241 266.907 33.5127 266.871 33.4919C266.835 33.471 266.804 33.4413 266.783 33.4056L265.011 30.4025C264.984 30.3571 264.942 30.3217 264.893 30.3019C264.844 30.282 264.79 30.2787 264.739 30.2924C264.687 30.3061 264.642 30.3361 264.61 30.3778C264.577 30.4196 264.559 30.4708 264.558 30.5238L264.525 34.0105C264.524 34.0523 264.513 34.0931 264.492 34.1293C264.471 34.1654 264.441 34.1957 264.406 34.2172L261.403 35.9892C261.357 36.0165 261.322 36.0578 261.302 36.1069C261.282 36.156 261.279 36.2102 261.292 36.2614C261.306 36.3125 261.336 36.3579 261.378 36.3904C261.42 36.423 261.471 36.4411 261.524 36.442Z" stroke="#145DB8" stroke-width="0.46875" stroke-linecap="round" stroke-linejoin="round"/>
<path d="M293.524 36.442L297.011 36.4751C297.052 36.4759 297.093 36.4872 297.129 36.5081C297.165 36.529 297.196 36.5587 297.217 36.5944L298.989 39.5975C299.017 39.6429 299.058 39.6782 299.107 39.6981C299.156 39.718 299.21 39.7213 299.261 39.7076C299.313 39.6939 299.358 39.6639 299.39 39.6221C299.423 39.5804 299.441 39.5291 299.442 39.4762L299.475 35.9894C299.476 35.9477 299.487 35.9068 299.508 35.8707C299.529 35.8346 299.559 35.8043 299.594 35.7827L302.598 34.0107C302.643 33.9835 302.678 33.9422 302.698 33.8931C302.718 33.844 302.721 33.7897 302.708 33.7386C302.694 33.6874 302.664 33.6421 302.622 33.6095C302.58 33.5769 302.529 33.5588 302.476 33.558L298.989 33.5249C298.948 33.5241 298.907 33.5127 298.871 33.4919C298.835 33.471 298.804 33.4413 298.783 33.4056L297.011 30.4025C296.984 30.3571 296.942 30.3217 296.893 30.3019C296.844 30.282 296.79 30.2787 296.739 30.2924C296.687 30.3061 296.642 30.3361 296.61 30.3778C296.577 30.4196 296.559 30.4708 296.558 30.5238L296.525 34.0105C296.524 34.0523 296.513 34.0931 296.492 34.1293C296.471 34.1654 296.441 34.1957 296.406 34.2172L293.403 35.9892C293.357 36.0165 293.322 36.0578 293.302 36.1069C293.282 36.156 293.279 36.2102 293.292 36.2614C293.306 36.3125 293.336 36.3579 293.378 36.3904C293.42 36.423 293.471 36.4411 293.524 36.442Z" stroke="#145DB8" stroke-width="0.46875" stroke-linecap="round" stroke-linejoin="round"/>
<path d="M325.524 36.442L329.011 36.4751C329.052 36.4759 329.093 36.4872 329.129 36.5081C329.165 36.529 329.196 36.5587 329.217 36.5944L330.989 39.5975C331.017 39.6429 331.058 39.6782 331.107 39.6981C331.156 39.718 331.21 39.7213 331.261 39.7076C331.313 39.6939 331.358 39.6639 331.39 39.6221C331.423 39.5804 331.441 39.5291 331.442 39.4762L331.475 35.9894C331.476 35.9477 331.487 35.9068 331.508 35.8707C331.529 35.8346 331.559 35.8043 331.594 35.7827L334.598 34.0107C334.643 33.9835 334.678 33.9422 334.698 33.8931C334.718 33.844 334.721 33.7897 334.708 33.7386C334.694 33.6874 334.664 33.6421 334.622 33.6095C334.58 33.5769 334.529 33.5588 334.476 33.558L330.989 33.5249C330.948 33.5241 330.907 33.5127 330.871 33.4919C330.835 33.471 330.804 33.4413 330.783 33.4056L329.011 30.4025C328.984 30.3571 328.942 30.3217 328.893 30.3019C328.844 30.282 328.79 30.2787 328.739 30.2924C328.687 30.3061 328.642 30.3361 328.61 30.3778C328.577 30.4196 328.559 30.4708 328.558 30.5238L328.525 34.0105C328.524 34.0523 328.513 34.0931 328.492 34.1293C328.471 34.1654 328.441 34.1957 328.406 34.2172L325.403 35.9892C325.357 36.0165 325.322 36.0578 325.302 36.1069C325.282 36.156 325.279 36.2102 325.292 36.2614C325.306 36.3125 325.336 36.3579 325.378 36.3904C325.42 36.423 325.471 36.4411 325.524 36.442Z" fill="url(#paint5_linear_1114_4091)" stroke="#145DB8" stroke-width="0.125" stroke-linecap="round" stroke-linejoin="round"/>
<defs>
<linearGradient id="paint0_linear_1114_4091" x1="70.9908" y1="4.99195" x2="77.0092" y2="11.008" gradientUnits="userSpaceOnUse">
<stop stop-color="#1877F2"/>
<stop offset="0.5" stop-color="#1877F2"/>
<stop offset="1" stop-color="#1877F2"/>
</linearGradient>
<linearGradient id="paint1_linear_1114_4091" x1="198.991" y1="4.99195" x2="205.009" y2="11.008" gradientUnits="userSpaceOnUse">
<stop stop-color="#1877F2"/>
<stop offset="0.5" stop-color="#1877F2"/>
<stop offset="1" stop-color="#1877F2"/>
</linearGradient>
<linearGradient id="paint2_linear_1114_4091" x1="326.991" y1="4.99195" x2="333.009" y2="11.008" gradientUnits="userSpaceOnUse">
<stop stop-color="#1877F2"/>
<stop offset="0.5" stop-color="#1877F2"/>
<stop offset="1" stop-color="#1877F2"/>
</linearGradient>
<linearGradient id="paint3_linear_1114_4091" x1="70.9908" y1="31.9919" x2="77.0092" y2="38.008" gradientUnits="userSpaceOnUse">
<stop stop-color="#1877F2"/>
<stop offset="0.5" stop-color="#1877F2"/>
<stop offset="1" stop-color="#1877F2"/>
</linearGradient>
<linearGradient id="paint4_linear_1114_4091" x1="198.991" y1="31.9919" x2="205.009" y2="38.008" gradientUnits="userSpaceOnUse">
<stop stop-color="#1877F2"/>
<stop offset="0.5" stop-color="#1877F2"/>
<stop offset="1" stop-color="#1877F2"/>
</linearGradient>
<linearGradient id="paint5_linear_1114_4091" x1="326.991" y1="31.9919" x2="333.009" y2="38.008" gradientUnits="userSpaceOnUse">
<stop stop-color="#1877F2"/>
<stop offset="0.5" stop-color="#1877F2"/>
<stop offset="1" stop-color="#1877F2"/>
</linearGradient>
</defs>
</svg>
