<svg width="40" height="40" viewBox="0 0 40 40" fill="none" xmlns="http://www.w3.org/2000/svg">
<path d="M12.9375 20.1526C12.9375 21.0001 12.2638 21.6451 11.41 21.6451C10.7713 21.6451 10.2988 21.2838 10.2988 20.6038C10.2988 19.7563 10.9588 19.0763 11.8063 19.0763C12.4525 19.0763 12.9375 19.4726 12.9375 20.1526ZM5.59003 16.7851H5.26378C5.16003 16.7851 5.05503 16.8551 5.04128 16.9726L4.74253 18.8276L5.31253 18.8063C6.07628 18.8063 6.66628 18.7026 6.80503 17.8201C6.96503 16.8888 6.37503 16.7851 5.59003 16.7851ZM25.3125 16.7851H25C24.875 16.7851 24.7913 16.8551 24.7775 16.9726L24.4863 18.8276L25.0413 18.8063C25.9438 18.8063 26.5688 18.5976 26.5688 17.5563C26.5613 16.8201 25.9038 16.7851 25.3125 16.7851ZM40 7.7776V32.2226C39.999 33.1065 39.6475 33.9538 39.0225 34.5788C38.3975 35.2038 37.5501 35.5554 36.6663 35.5563H3.33253C2.44867 35.5554 1.60129 35.2038 0.976308 34.5788C0.351324 33.9538 -0.000228158 33.1065 -0.0012207 32.2226V7.7776C-0.000228158 6.89374 0.351324 6.04636 0.976308 5.42138C1.60129 4.79639 2.44867 4.44484 3.33253 4.44385H36.6663C37.5501 4.44484 38.3975 4.79639 39.0225 5.42138C39.6475 6.04636 39.999 6.89374 40 7.7776ZM8.91003 17.1801C8.91003 15.7213 7.78503 15.2351 6.50003 15.2351H3.72253C3.6328 15.2358 3.54645 15.2694 3.47986 15.3295C3.41327 15.3897 3.37108 15.4722 3.36128 15.5613L2.22253 22.6513C2.20128 22.7901 2.30628 22.9288 2.44503 22.9288H3.76503C3.95253 22.9288 4.12628 22.7276 4.14753 22.5326L4.46003 20.6851C4.53003 20.1851 5.37628 20.3588 5.71003 20.3588C7.69628 20.3588 8.91128 19.1788 8.91128 17.1788L8.91003 17.1801ZM14.7575 17.7913H13.4375C13.1738 17.7913 13.16 18.1738 13.1463 18.3613C12.7438 17.7713 12.16 17.6663 11.5 17.6663C9.79878 17.6663 8.50003 19.1588 8.50003 20.8051C8.50003 22.1588 9.34753 23.0413 10.7013 23.0413C11.3263 23.0413 12.1038 22.7013 12.5413 22.2151C12.5012 22.3556 12.4777 22.5004 12.4713 22.6463C12.4713 22.8063 12.5413 22.9238 12.6938 22.9238H13.8888C14.0763 22.9238 14.2363 22.7226 14.2713 22.5276L14.98 18.0626C15.0013 17.9301 14.8963 17.7913 14.7575 17.7913ZM17.57 24.5901L21.9938 18.1588C22.0288 18.1238 22.0288 18.0888 22.0288 18.0413C22.0288 17.9238 21.925 17.7988 21.8063 17.7988H20.4725C20.4105 17.8016 20.35 17.8187 20.2958 17.8489C20.2415 17.879 20.1951 17.9214 20.16 17.9726L18.32 20.6813L17.5563 18.0776C17.5271 17.9987 17.4752 17.9302 17.4072 17.8808C17.3391 17.8314 17.2578 17.8033 17.1738 17.8001H15.875C15.7563 17.8001 15.6525 17.9251 15.6525 18.0426C15.6525 18.1263 17.0063 21.9876 17.125 22.3551C16.9375 22.6188 15.7013 24.3413 15.7013 24.5501C15.7013 24.6751 15.805 24.7726 15.9238 24.7726H17.2575C17.3198 24.7682 17.3804 24.7497 17.4345 24.7186C17.4886 24.6874 17.535 24.6443 17.57 24.5926V24.5901ZM28.6325 17.1801C28.6325 15.7213 27.5075 15.2351 26.2225 15.2351H23.465C23.3729 15.2351 23.2838 15.268 23.2137 15.3278C23.1436 15.3876 23.0971 15.4704 23.0825 15.5613L21.9575 22.6451C21.9438 22.7838 22.0475 22.9226 22.18 22.9226H23.6038C23.7425 22.9226 23.8463 22.8188 23.8813 22.7001L24.1938 20.6863C24.2638 20.1863 25.1113 20.3601 25.4438 20.3601C27.4163 20.3601 28.6325 19.1801 28.6325 17.1801ZM34.4788 17.7913H33.1588C32.895 17.7913 32.8813 18.1738 32.86 18.3613C32.4775 17.7713 31.8875 17.6663 31.2138 17.6663C29.5125 17.6663 28.2138 19.1588 28.2138 20.8051C28.2138 22.1588 29.0613 23.0413 30.415 23.0413C31.0613 23.0413 31.8388 22.7013 32.255 22.2151C32.2338 22.3188 32.185 22.5413 32.185 22.6463C32.185 22.8063 32.255 22.9238 32.4075 22.9238H33.6088C33.7963 22.9238 33.9563 22.7226 33.9913 22.5276L34.7 18.0626C34.7213 17.9301 34.6175 17.7913 34.4788 17.7913ZM37.7775 15.4788C37.7775 15.3401 37.6738 15.2363 37.555 15.2363H36.27C36.1663 15.2363 36.0613 15.3201 36.0475 15.4238L34.9225 22.6463L34.9025 22.6813C34.9025 22.8063 35.0063 22.9238 35.145 22.9238H36.2913C36.465 22.9238 36.6388 22.7226 36.6525 22.5276L37.7775 15.5001V15.4788ZM31.5275 19.0763C30.68 19.0763 30.02 19.7501 30.02 20.6038C30.02 21.2776 30.5063 21.6451 31.145 21.6451C31.9788 21.6451 32.6525 21.0063 32.6525 20.1526C32.66 19.4726 32.1738 19.0763 31.5275 19.0763Z" fill="#145DB8"/>
</svg>
