<svg width="16" height="16" viewBox="0 0 16 16" fill="none" xmlns="http://www.w3.org/2000/svg">
<g clip-path="url(#clip0_1755_4995)">
<path d="M14.0267 1.91959H1.97333C1.44 1.91959 0.977778 2.10626 0.586667 2.47959C0.195556 2.85292 0 3.32403 0 3.89292V12.1063C0 12.6751 0.195556 13.1463 0.586667 13.5196C0.977778 13.8929 1.44 14.0796 1.97333 14.0796H14.0267C14.56 14.0796 15.0222 13.8929 15.4133 13.5196C15.8044 13.1463 16 12.6751 16 12.1063V3.89292C16 3.32403 15.8133 2.85292 15.44 2.47959C15.0667 2.10626 14.5956 1.91959 14.0267 1.91959ZM15.0933 12.1063C15.0933 12.4263 14.9956 12.684 14.8 12.8796C14.6044 13.0751 14.3467 13.1729 14.0267 13.1729H1.97333C1.65333 13.1729 1.39556 13.0751 1.2 12.8796C1.00444 12.684 0.906667 12.4263 0.906667 12.1063V3.89292C0.906667 3.57292 1.00444 3.31514 1.2 3.11959C1.39556 2.92403 1.65333 2.82626 1.97333 2.82626H14.0267C14.3467 2.82626 14.6044 2.92403 14.8 3.11959C14.9956 3.31514 15.0933 3.57292 15.0933 3.89292V12.1063ZM10.08 7.89292L14.0267 4.37292C14.0978 4.30181 14.1422 4.20403 14.16 4.07959C14.1778 3.95514 14.1422 3.84848 14.0533 3.75959C13.9644 3.6707 13.8578 3.61737 13.7333 3.59959C13.6089 3.58181 13.4933 3.62626 13.3867 3.73292L8 8.58626L2.61333 3.73292C2.50667 3.62626 2.39111 3.58181 2.26667 3.59959C2.14222 3.61737 2.03556 3.6707 1.94667 3.75959C1.85778 3.84848 1.82222 3.95514 1.84 4.07959C1.85778 4.20403 1.90222 4.30181 1.97333 4.37292L5.97333 7.94626L2.02667 11.6263C1.92 11.6974 1.86667 11.7951 1.86667 11.9196C1.86667 12.044 1.91111 12.1507 2 12.2396C2.08889 12.3285 2.19556 12.3729 2.32 12.3729C2.44444 12.3729 2.54222 12.3374 2.61333 12.2663L6.61333 8.53292L7.73333 9.49292C7.80445 9.56403 7.89333 9.59959 8 9.59959C8.10667 9.59959 8.21333 9.56403 8.32 9.49292L9.44 8.47959L13.3867 12.2663C13.4933 12.3374 13.6089 12.3729 13.7333 12.3729C13.8578 12.3729 13.9644 12.3285 14.0533 12.2396C14.1422 12.1507 14.1778 12.044 14.16 11.9196C14.1422 11.7951 14.0978 11.6974 14.0267 11.6263L10.08 7.89292Z" fill="white"/>
</g>
<defs>
<clipPath id="clip0_1755_4995">
<rect width="16" height="16" fill="white" transform="matrix(1 0 0 -1 0 16)"/>
</clipPath>
</defs>
</svg>
