<svg width="16" height="16" viewBox="0 0 16 16" fill="none" xmlns="http://www.w3.org/2000/svg">
<g clip-path="url(#clip0_1755_4989)">
<path d="M12.64 9.92C12.32 9.56444 11.9467 9.38667 11.52 9.38667C11.0933 9.38667 10.7022 9.56444 10.3467 9.92L9.28 10.9867L8.69333 10.6667C7.69777 10.0267 6.77333 9.17333 5.92 8.10667C5.49333 7.60889 5.19111 7.12889 5.01333 6.66667L6.08 5.65333C6.43555 5.29778 6.61333 4.90667 6.61333 4.48C6.61333 4.05333 6.43555 3.66222 6.08 3.30667L4.21333 1.44C3.85777 1.08444 3.47555 0.906665 3.06666 0.906665C2.65777 0.906665 2.27555 1.08444 1.92 1.44L0.746663 2.61333C0.319996 3.04 0.0711073 3.55555 -3.81004e-06 4.16C-0.0355594 4.90667 0.124441 5.74222 0.479996 6.66667C1.01333 8.12444 1.86666 9.56444 3.04 10.9867C4.53333 12.7644 6.29333 14.1333 8.32 15.0933C9.45777 15.6267 10.4533 15.9289 11.3067 16H11.52C12.3022 16 12.9422 15.7156 13.44 15.1467H13.4933C13.6 15.0044 13.7778 14.8089 14.0267 14.56L14.5067 14.08C14.8622 13.7244 15.04 13.3333 15.04 12.9067C15.04 12.48 14.8622 12.1067 14.5067 11.7867L12.64 9.92ZM13.8667 13.4933L13.44 13.8667C13.1556 14.1511 12.9422 14.3822 12.8 14.56C12.4444 14.9156 12.0178 15.0933 11.52 15.0933H11.36C10.6133 15.0578 9.74222 14.7911 8.74666 14.2933C6.82666 13.3689 5.15555 12.0711 3.73333 10.4C2.63111 9.04889 1.83111 7.69778 1.33333 6.34667C1.01333 5.52889 0.888885 4.81778 0.959996 4.21333C0.995552 3.82222 1.13777 3.50222 1.38666 3.25333L2.56 2.08C2.73777 1.90222 2.90666 1.81333 3.06666 1.81333C3.22666 1.81333 3.39555 1.90222 3.57333 2.08L5.44 3.94667C5.76 4.30222 5.76 4.64 5.44 4.96L5.12 5.28C4.8 5.63555 4.51555 5.90222 4.26666 6.08V6.13333C4.05333 6.34667 4 6.59555 4.10666 6.88V6.93333C4.32 7.46667 4.67555 8.05333 5.17333 8.69333C6.09777 9.83111 7.11111 10.7378 8.21333 11.4133L8.96 11.84C9.10222 11.9111 9.24444 11.9467 9.38666 11.9467C9.52889 11.9467 9.67111 11.8578 9.81333 11.68L10.9867 10.56C11.1644 10.3822 11.3333 10.2933 11.4933 10.2933C11.6533 10.2933 11.8222 10.3822 12 10.56L13.8667 12.4267C14.1867 12.7467 14.1867 13.1022 13.8667 13.4933ZM8.64 3.78667C9.52889 3.96444 10.3022 4.37333 10.96 5.01333C11.6178 5.65333 12.0178 6.43555 12.16 7.36C12.1956 7.46667 12.2578 7.55555 12.3467 7.62667C12.4356 7.69778 12.5333 7.73333 12.64 7.73333H12.6933C12.8356 7.69778 12.9422 7.62667 13.0133 7.52C13.0844 7.41333 13.1022 7.30667 13.0667 7.2C12.8889 6.09778 12.4089 5.15555 11.6267 4.37333C10.8444 3.59111 9.90222 3.11111 8.8 2.93333C8.69333 2.89778 8.58666 2.91555 8.48 2.98667C8.37333 3.05778 8.31111 3.15555 8.29333 3.28C8.27555 3.40444 8.30222 3.52 8.37333 3.62667C8.44444 3.73333 8.53333 3.78667 8.64 3.78667ZM16 7.04C15.68 5.26222 14.8711 3.72444 13.5733 2.42667C12.2756 1.12889 10.72 0.319999 8.90666 -1.90735e-06C8.8 -1.90735e-06 8.69333 0.0355539 8.58666 0.106666C8.48 0.177776 8.41777 0.275554 8.4 0.399999C8.38222 0.524443 8.40889 0.631109 8.48 0.719998C8.55111 0.808887 8.65777 0.87111 8.8 0.906665C10.4 1.19111 11.7778 1.91111 12.9333 3.06667C14.0889 4.22222 14.8089 5.6 15.0933 7.2C15.0933 7.30667 15.1378 7.39555 15.2267 7.46667C15.3156 7.53778 15.4133 7.57333 15.52 7.57333H15.6267C15.7333 7.57333 15.8222 7.52 15.8933 7.41333C15.9644 7.30667 16 7.18222 16 7.04Z" fill="white"/>
</g>
<defs>
<clipPath id="clip0_1755_4989">
<rect width="16" height="16" fill="white" transform="matrix(1 0 0 -1 0 16)"/>
</clipPath>
</defs>
</svg>
