<svg width="21" height="20" viewBox="0 0 21 20" fill="none" xmlns="http://www.w3.org/2000/svg">
<path d="M18 17.5L14.3808 13.8808M14.3808 13.8808C14.9999 13.2617 15.491 12.5268 15.826 11.7179C16.161 10.9091 16.3335 10.0422 16.3335 9.16666C16.3335 8.29115 16.1611 7.42422 15.826 6.61537C15.491 5.80651 14.9999 5.07156 14.3808 4.45249C13.7617 3.83342 13.0268 3.34234 12.2179 3.0073C11.4091 2.67226 10.5422 2.49982 9.66666 2.49982C8.79115 2.49982 7.92422 2.67226 7.11537 3.0073C6.30651 3.34234 5.57156 3.83342 4.95249 4.45249C3.70221 5.70276 2.99982 7.3985 2.99982 9.16666C2.99982 10.9348 3.70221 12.6305 4.95249 13.8808C6.20276 15.1311 7.8985 15.8335 9.66666 15.8335C11.4348 15.8335 13.1305 15.1311 14.3808 13.8808Z" stroke="#333333" stroke-width="0.833333" stroke-linecap="round" stroke-linejoin="round"/>
</svg>
