<svg width="128" height="24" viewBox="0 0 128 24" fill="none" xmlns="http://www.w3.org/2000/svg">
<path d="M5.74 16C5.85 15.51 5.65 14.81 5.3 14.46L2.87 12.03C2.11 11.27 1.81 10.46 2.03 9.76C2.26 9.06 2.97 8.58 4.03 8.4L7.15 7.88C7.6 7.8 8.15 7.4 8.36 6.99L10.08 3.54C10.58 2.55 11.26 2 12 2C12.74 2 13.42 2.55 13.92 3.54L15.64 6.99C15.77 7.25 16.04 7.5 16.33 7.67L5.56 18.44C5.42 18.58 5.18 18.45 5.22 18.25L5.74 16Z" fill="#F9E000"/>
<path d="M18.7 14.4599C18.34 14.8199 18.14 15.5099 18.26 15.9999L18.95 19.0099C19.24 20.2599 19.06 21.1999 18.44 21.6499C18.19 21.8299 17.89 21.9199 17.54 21.9199C17.03 21.9199 16.43 21.7299 15.77 21.3399L12.84 19.5999C12.38 19.3299 11.62 19.3299 11.16 19.5999L8.23 21.3399C7.12 21.9899 6.17 22.0999 5.56 21.6499C5.33 21.4799 5.16 21.2499 5.05 20.9499L17.21 8.7899C17.67 8.3299 18.32 8.1199 18.95 8.2299L19.96 8.3999C21.02 8.5799 21.73 9.0599 21.96 9.7599C22.18 10.4599 21.88 11.2699 21.12 12.0299L18.7 14.4599Z" fill="#F9E000"/>
<path d="M31.74 16C31.85 15.51 31.65 14.81 31.3 14.46L28.87 12.03C28.11 11.27 27.81 10.46 28.03 9.76C28.26 9.06 28.97 8.58 30.03 8.4L33.15 7.88C33.6 7.8 34.15 7.4 34.36 6.99L36.08 3.54C36.58 2.55 37.26 2 38 2C38.74 2 39.42 2.55 39.92 3.54L41.64 6.99C41.77 7.25 42.04 7.5 42.33 7.67L31.56 18.44C31.42 18.58 31.18 18.45 31.22 18.25L31.74 16Z" fill="#F9E000"/>
<path d="M44.7 14.4599C44.34 14.8199 44.14 15.5099 44.26 15.9999L44.95 19.0099C45.24 20.2599 45.06 21.1999 44.44 21.6499C44.19 21.8299 43.89 21.9199 43.54 21.9199C43.03 21.9199 42.43 21.7299 41.77 21.3399L38.84 19.5999C38.38 19.3299 37.62 19.3299 37.16 19.5999L34.23 21.3399C33.12 21.9899 32.17 22.0999 31.56 21.6499C31.33 21.4799 31.16 21.2499 31.05 20.9499L43.21 8.7899C43.67 8.3299 44.32 8.1199 44.95 8.2299L45.96 8.3999C47.02 8.5799 47.73 9.0599 47.96 9.7599C48.18 10.4599 47.88 11.2699 47.12 12.0299L44.7 14.4599Z" fill="#F9E000"/>
<path d="M57.74 16C57.85 15.51 57.65 14.81 57.3 14.46L54.87 12.03C54.11 11.27 53.81 10.46 54.03 9.76C54.26 9.06 54.97 8.58 56.03 8.4L59.15 7.88C59.6 7.8 60.15 7.4 60.36 6.99L62.08 3.54C62.58 2.55 63.26 2 64 2C64.74 2 65.42 2.55 65.92 3.54L67.64 6.99C67.77 7.25 68.04 7.5 68.33 7.67L57.56 18.44C57.42 18.58 57.18 18.45 57.22 18.25L57.74 16Z" fill="#F9E000"/>
<path d="M70.7 14.4599C70.34 14.8199 70.14 15.5099 70.26 15.9999L70.95 19.0099C71.24 20.2599 71.06 21.1999 70.44 21.6499C70.19 21.8299 69.89 21.9199 69.54 21.9199C69.03 21.9199 68.43 21.7299 67.77 21.3399L64.84 19.5999C64.38 19.3299 63.62 19.3299 63.16 19.5999L60.23 21.3399C59.12 21.9899 58.17 22.0999 57.56 21.6499C57.33 21.4799 57.16 21.2499 57.05 20.9499L69.21 8.7899C69.67 8.3299 70.32 8.1199 70.95 8.2299L71.96 8.3999C73.02 8.5799 73.73 9.0599 73.96 9.7599C74.18 10.4599 73.88 11.2699 73.12 12.0299L70.7 14.4599Z" fill="#F9E000"/>
<path d="M83.74 16C83.85 15.51 83.65 14.81 83.3 14.46L80.87 12.03C80.11 11.27 79.81 10.46 80.03 9.76C80.26 9.06 80.97 8.58 82.03 8.4L85.15 7.88C85.6 7.8 86.15 7.4 86.36 6.99L88.08 3.54C88.58 2.55 89.26 2 90 2C90.74 2 91.42 2.55 91.92 3.54L93.64 6.99C93.77 7.25 94.04 7.5 94.33 7.67L83.56 18.44C83.42 18.58 83.18 18.45 83.22 18.25L83.74 16Z" fill="#F9E000"/>
<path d="M96.7 14.4599C96.34 14.8199 96.14 15.5099 96.26 15.9999L96.95 19.0099C97.24 20.2599 97.06 21.1999 96.44 21.6499C96.19 21.8299 95.89 21.9199 95.54 21.9199C95.03 21.9199 94.43 21.7299 93.77 21.3399L90.84 19.5999C90.38 19.3299 89.62 19.3299 89.16 19.5999L86.23 21.3399C85.12 21.9899 84.17 22.0999 83.56 21.6499C83.33 21.4799 83.16 21.2499 83.05 20.9499L95.21 8.7899C95.67 8.3299 96.32 8.1199 96.95 8.2299L97.96 8.3999C99.02 8.5799 99.73 9.0599 99.96 9.7599C100.18 10.4599 99.88 11.2699 99.12 12.0299L96.7 14.4599Z" fill="#F9E000"/>
<path d="M109.74 16C109.85 15.51 109.65 14.81 109.3 14.46L106.87 12.03C106.11 11.27 105.81 10.46 106.03 9.76C106.26 9.06 106.97 8.58 108.03 8.4L111.15 7.88C111.6 7.8 112.15 7.4 112.36 6.99L114.08 3.54C114.58 2.55 115.26 2 116 2C116.74 2 117.42 2.55 117.92 3.54L119.64 6.99C119.77 7.25 120.04 7.5 120.33 7.67L109.56 18.44C109.42 18.58 109.18 18.45 109.22 18.25L109.74 16Z" fill="#F9E000"/>
<path d="M122.7 14.4599C122.34 14.8199 122.14 15.5099 122.26 15.9999L122.95 19.0099C123.24 20.2599 123.06 21.1999 122.44 21.6499C122.19 21.8299 121.89 21.9199 121.54 21.9199C121.03 21.9199 120.43 21.7299 119.77 21.3399L116.84 19.5999C116.38 19.3299 115.62 19.3299 115.16 19.5999L112.23 21.3399C111.12 21.9899 110.17 22.0999 109.56 21.6499C109.33 21.4799 109.16 21.2499 109.05 20.9499L121.21 8.7899C121.67 8.3299 122.32 8.1199 122.95 8.2299L123.96 8.3999C125.02 8.5799 125.73 9.0599 125.96 9.7599C126.18 10.4599 125.88 11.2699 125.12 12.0299L122.7 14.4599Z" fill="#F9E000"/>
</svg>
