<svg width="68" height="21" viewBox="0 0 68 21" fill="none" xmlns="http://www.w3.org/2000/svg">
<path d="M29.9598 20.3154H24.5435L27.9312 0.703125H33.3472L29.9598 20.3154Z" fill="white"/>
<path d="M49.5922 1.18263C48.5238 0.785803 46.8294 0.347656 44.7342 0.347656C39.3854 0.347656 35.6188 3.01813 35.5957 6.8361C35.5513 9.65299 38.2925 11.2176 40.3426 12.1568C42.4381 13.1166 43.1505 13.743 43.1505 14.5985C43.1291 15.9124 41.4572 16.518 39.8978 16.518C37.7353 16.518 36.5767 16.2058 34.8159 15.4748L34.1027 15.1614L33.3447 19.564C34.6151 20.1058 36.9555 20.5867 39.3854 20.6078C45.0686 20.6078 48.7685 17.9786 48.8123 13.9099C48.8339 11.6773 47.3865 9.96663 44.2659 8.56872C42.3715 7.67135 41.2114 7.06627 41.2114 6.1481C41.2336 5.3134 42.1926 4.45846 44.3311 4.45846C46.0919 4.41659 47.3856 4.81286 48.3657 5.20941L48.8556 5.41767L49.5922 1.18263Z" fill="white"/>
<path d="M56.7935 13.3675C57.2395 12.2408 58.9559 7.88012 58.9559 7.88012C58.9334 7.92199 59.4011 6.73262 59.6685 6.00247L60.0471 7.69238C60.0471 7.69238 61.0727 12.3869 61.2955 13.3675C60.449 13.3675 57.8633 13.3675 56.7935 13.3675ZM63.4792 0.703125H59.2897C57.9978 0.703125 57.0162 1.05752 56.4588 2.33037L48.4136 20.3151H54.0967C54.0967 20.3151 55.0324 17.8945 55.2335 17.3732C55.857 17.3732 61.3855 17.3732 62.1876 17.3732C62.3431 18.0617 62.8339 20.3151 62.8339 20.3151H67.8488L63.4792 0.703125Z" fill="white"/>
<path d="M20.0186 0.703125L14.7143 14.0768L14.1346 11.3645C13.154 8.2348 10.0784 4.83445 6.64624 3.14371L11.5048 20.2946H17.2324L25.7459 0.703125H20.0186Z" fill="white"/>
<path d="M9.78881 0.703125H1.0745L0.985352 1.09944C7.78306 2.72715 12.285 6.65067 14.1347 11.3666L12.2403 2.35191C11.9284 1.09917 10.97 0.744449 9.78881 0.703125Z" fill="#FAA61A"/>
</svg>
