<svg width="25" height="25" viewBox="0 0 25 25" fill="none" xmlns="http://www.w3.org/2000/svg">
<path fill-rule="evenodd" clip-rule="evenodd" d="M12.5 2.5C6.977 2.5 2.5 6.977 2.5 12.5C2.5 14.39 3.025 16.16 3.938 17.668L3.046 20.7C2.99478 20.8741 2.99141 21.0587 3.03624 21.2346C3.08107 21.4104 3.17245 21.5709 3.30076 21.6992C3.42907 21.8276 3.58958 21.9189 3.76542 21.9638C3.94125 22.0086 4.12592 22.0052 4.3 21.954L7.332 21.062C8.89074 22.0049 10.6782 22.5023 12.5 22.5C18.023 22.5 22.5 18.023 22.5 12.5C22.5 6.977 18.023 2.5 12.5 2.5ZM10.238 14.763C12.261 16.785 14.192 17.052 14.874 17.077C15.911 17.115 16.921 16.323 17.314 15.404C17.3632 15.2896 17.381 15.1641 17.3655 15.0405C17.35 14.917 17.3019 14.7998 17.226 14.701C16.678 14.001 15.937 13.498 15.213 12.998C15.0619 12.8932 14.8761 12.8512 14.6946 12.8806C14.5131 12.9101 14.3502 13.0088 14.24 13.156L13.64 14.071C13.6083 14.12 13.5591 14.1551 13.5025 14.1692C13.4459 14.1833 13.386 14.1754 13.335 14.147C12.928 13.914 12.335 13.518 11.909 13.092C11.483 12.666 11.111 12.1 10.902 11.719C10.8767 11.6705 10.8696 11.6145 10.8819 11.5611C10.8941 11.5078 10.925 11.4606 10.969 11.428L11.893 10.742C12.0252 10.6276 12.1106 10.4684 12.1328 10.2949C12.1549 10.1215 12.1123 9.94596 12.013 9.802C11.565 9.146 11.043 8.312 10.286 7.759C10.1881 7.68866 10.0737 7.64479 9.95385 7.63165C9.83402 7.61851 9.71282 7.63654 9.602 7.684C8.682 8.078 7.886 9.088 7.924 10.127C7.949 10.809 8.216 12.74 10.238 14.763Z" fill="#4CAF50"/>
</svg>
