<svg width="22" height="15" viewBox="0 0 22 15" fill="none" xmlns="http://www.w3.org/2000/svg">
<path d="M21.3625 2.38281C21.8313 4.02344 21.8313 7.53906 21.8313 7.53906C21.8313 7.53906 21.8313 11.0156 21.3625 12.6953C21.1281 13.6328 20.3859 14.3359 19.4875 14.5703C17.8078 15 11.1672 15 11.1672 15C11.1672 15 4.4875 15 2.80781 14.5703C1.90938 14.3359 1.16719 13.6328 0.932813 12.6953C0.464063 11.0156 0.464063 7.53906 0.464063 7.53906C0.464063 7.53906 0.464063 4.02344 0.932813 2.38281C1.16719 1.44531 1.90938 0.703125 2.80781 0.46875C4.4875 0 11.1672 0 11.1672 0C11.1672 0 17.8078 0 19.4875 0.46875C20.3859 0.703125 21.1281 1.44531 21.3625 2.38281ZM8.97969 10.7031L14.5266 7.53906L8.97969 4.375V10.7031Z" fill="#FC4B4E"/>
</svg>
